<svg
   version="1.1"
   id="svg2"
   xml:space="preserve"
   width="666.66669"
   height="666.66669"
   viewBox="0 0 666.66669 666.66669"
   sodipodi:docname="11241416_4676728.eps"
   xmlns:inkscape="http://www.inkscape.org/namespaces/inkscape"
   xmlns:sodipodi="http://sodipodi.sourceforge.net/DTD/sodipodi-0.dtd"
   xmlns="http://www.w3.org/2000/svg"
   xmlns:svg="http://www.w3.org/2000/svg"><defs
     id="defs6"><clipPath
       clipPathUnits="userSpaceOnUse"
       id="clipPath150"><path
         d="m 3765.03,2322.69 c -4.58,36.44 -7.72,70.71 -8.35,100.96 0.55,-26.06 3.65,-60.84 8.35,-100.96 m -8.35,101.18 c 0,0.01 0,0.03 0,0.04 0,-0.01 0,-0.02 0,-0.04"
         id="path148" /></clipPath></defs><sodipodi:namedview
     id="namedview4"
     pagecolor="#ffffff"
     bordercolor="#666666"
     borderopacity="1.0"
     inkscape:pageshadow="2"
     inkscape:pageopacity="0.0"
     inkscape:pagecheckerboard="0" /><g
     id="g8"
     inkscape:groupmode="layer"
     inkscape:label="ink_ext_XXXXXX"
     transform="matrix(1.3333333,0,0,-1.3333333,0,666.66667)"><g
       id="g10"
       transform="scale(0.1)"><path
         d="M 0,0 H 5000 V 5000 H 0 Z"
         style="fill:#ebecf8;fill-opacity:1;fill-rule:nonzero;stroke:none"
         id="path12" /><path
         d="M 5000,436.32 H 0 v 3038.83 h 627.031 v -298.6 H 753.98 v 791 h 414.26 v -871.2 h 326 v 921.12 l 676.93,-323.1 V 2693.13 h 582.43 v 363.28 h 219.87 v -189.96 h 155.21 V 3431 h 328.88 v -473.55 h 268.99 c 7.51,-14 9.51,-30.33 9.51,-47.1 0,-12.36 -1.09,-24.95 -1.85,-37.01 -0.25,-4.08 -0.4,-8.27 -0.4,-12.49 0,-29.07 6.92,-60.08 31.84,-73.13 8.23,-4.31 16.88,-5.9 25.81,-5.9 4.57,0 9.22,0.41 13.91,1.1 -59.3,-68.02 -89.89,-113.77 -109.15,-188.25 -12.7,-49.07 3.2,-98.3 36.06,-135.92 l -16.82,-45.45 c 0,-0.01 0,-0.01 0,-0.01 l -36.02,-97.31 -265.61,53.11 -12.18,-46.6 -3.74,-14.3 283.74,-123.46 c 10.34,-4.5 20.85,-6.56 31.04,-6.57 27.5,0 52.74,15.04 66.51,37.9 22.58,-156.64 54.87,-342.37 61.5,-427.67 43.83,-12.57 93.56,-18.93 145.27,-18.93 144.48,0 304.19,49.7 392.09,152.41 -53.71,194.16 -201.86,332.57 -235.58,380.61 -33.71,48.13 -56.17,106.69 -51.17,167.67 0.9,10.72 2.61,21.36 4.86,31.94 0.03,0.03 0.05,0.07 0.08,0.1 1.07,5.03 2.26,10.05 3.55,15.06 23.5,2.38 46.87,7.99 69.69,14.32 46.23,12.83 92.33,29.08 131.33,57.03 v 0 c 38.53,27.62 69.77,68.1 77.84,114.76 0.1,0.56 0.19,1.11 0.28,1.67 1.06,6.57 1.58,13.24 1.57,19.93 -0.01,41.56 -20.08,83.64 -56.3,103.52 -24.62,13.51 -56.58,17.99 -71.78,41.59 -5.79,8.99 -8.04,18.98 -8.04,29.38 0.01,18.54 7.2,38.36 14.32,56.04 6.68,16.59 12.91,35.43 12.89,52.96 -0.01,11.6 -2.76,22.64 -9.94,32.06 -32.73,42.99 -116.19,3.75 -148.89,46.76 -12.69,16.69 -11.89,39.52 -13.08,60.45 v 0 c 0,0.1 -0.01,0.19 -0.01,0.29 -3.66,63.03 -32.67,123.42 -77.14,168.08 v 495.32 h 567.33 V 3519.13 H 5000 V 436.32"
         style="fill:#e2d8ef;fill-opacity:1;fill-rule:nonzero;stroke:none"
         id="path14" /><path
         d="m 3971.74,784.742 c -95.1,90.617 -237.06,173.727 -227.6,324.278 0.47,6.97 -8.55,8.24 -11.57,3.55 -0.96,0.3 -2.18,0.05 -2.9,-0.86 l -0.26,-0.28 c -10.03,-18.1 -17.17,-37.09 -21.54,-56.49 l -0.1,-0.32 c -20.84,-89.749 12.95,-188.972 65.3,-262.6 39.75,-55.7 90.65,-101.989 144.37,-143.969 30.21,-23.512 61.72,-45.399 91.92,-68.903 28.54,-22.117 52.71,-48.429 79.21,-72.296 1.09,-1.032 2.24,-2.18 3.43,-3.161 0.26,-6.582 0.47,-13.062 0.47,-19.652 -0.04,-5 7.35,-5.238 7.6,-0.398 0.08,1.109 0.11,2.328 0.08,3.398 l 0.05,0.16 c 0.09,3.141 0.23,6.18 0.21,9.25 1.19,-0.969 2.27,-2.008 3.41,-2.89 3.36,-2.789 8.71,0.312 6.53,4.683 -3,5.66 -6.38,11.27 -10.01,16.598 -0.23,4.73 -0.11,8.832 -0.54,13.441 l -0.23,0.68 c -6.89,98.699 -55.23,186.57 -127.83,255.781"
         style="fill:#3899a9;fill-opacity:1;fill-rule:nonzero;stroke:none"
         id="path16" /><path
         d="m 4253.87,824.449 -0.15,-0.207 -0.05,-0.172 -0.05,-0.16 -0.05,-0.16 -0.05,-0.16 c -6.18,-10.41 -12.35,-20.82 -18.38,-31.27 3.77,9.121 7,18.231 9.65,27.442 l 2.52,1.34 c 2.5,2.128 5,4.269 7.56,6.296 l 2.02,1.75 c -1.06,-1.789 -1.72,-3.339 -3.02,-4.699 z m 550.66,580.751 c -111.89,-88.7 -224.24,-177.78 -323.29,-281.06 -75.88,-79.28 -144.71,-168.8 -204.09,-262.449 -4.96,-3.839 -9.75,-7.742 -14.6,-11.781 -1.5,-1.211 -3.12,-2.469 -4.58,-3.781 -2.87,-2.199 -5.52,-4.547 -8.33,-6.848 1.1,5.02 1.93,10.039 2.77,15.059 2.15,-0.75 4.69,-0.481 6.52,0.64 2.04,1.211 3.26,3.469 2.12,6.641 -0.4,1.27 -0.96,2.578 -1.37,3.848 l -0.04,0.101 c -1.55,4.16 -3.07,8.059 -4.82,12.11 0.76,12.511 0.67,25.101 -0.21,37.679 -0.25,5.789 -0.81,11.672 -1.69,17.391 l -0.19,1.109 c -10,82.261 -50.72,162.341 -91.72,234.591 -83.1,145.82 -157.78,299.34 -168.73,469.59 -0.3,5.89 -5.71,9.75 -10.57,8.78 l -0.11,-0.06 c -1.01,-0.12 -2,-0.52 -2.94,-1.28 -0.89,-0.61 -1.66,-1.43 -2.44,-2.51 -70.29,-108.32 -89.22,-246.56 -43.42,-368.18 27.29,-72.27 74.39,-135.24 127.32,-190.68 63.72,-66.93 143.13,-123.372 181.34,-209.618 2.25,-5.262 4.35,-10.48 6.39,-15.851 l 0.71,-1.09 c -0.73,-7.25 -1.83,-14.559 -3.09,-21.821 l -6.71,-5.589 c -4.43,-3.821 -1.11,-9.59 3.38,-10.442 -2.37,-10 -5.37,-20.058 -9,-30.187 l 0.8,-0.262 0.3,0.711 1.98,-0.172 c 3.29,4.441 6.54,8.711 9.94,12.941 l 0.15,0.231 0.15,0.469 c 8.6,11.429 17.09,23.058 25.47,34.629 2.22,2.933 4.42,5.851 6.59,8.882 13.65,11.02 27.53,21.61 41.56,32.149 l 0.11,0.058 c 85.13,63.872 175.4,120.801 252.86,194.052 45.26,42.71 82.74,90.18 113.69,144.13 29.53,51.58 60.87,97.94 97.18,143.31 l 0.05,0.16 c 9.34,11.81 19.09,23.58 29.17,35.25 2.18,2.5 2.22,5.22 1.05,7.41 l -0.06,0.11 c -1.61,3.05 -5.85,4.7 -9.6,1.63"
         style="fill:#3899a9;fill-opacity:1;fill-rule:nonzero;stroke:none"
         id="path18" /><path
         d="m 4407.36,2070.31 c -1.71,-2.12 -3.41,-4.23 -5.01,-6.29 -50.19,-62.55 -95.05,-121.46 -122.73,-198.56 -27.34,-76.25 -38.5,-157.89 -31.51,-238.52 7.81,-88.53 39.66,-173.18 58.95,-259.51 12.16,-54.62 19.24,-108.29 19.81,-162.87 l 0.05,-0.11 c 0.23,-22.74 -0.65,-45.41 -2.75,-68.57 13.14,38.84 26.44,77.92 39.42,116.82 l 0.1,0.32 c 36,109.09 68.52,219.15 85.02,333.36 22.61,157.13 7.75,308.91 -32.5,460.65 l -0.06,0.11 c -2.24,9.03 -4.68,17.95 -7.29,26.92 -0.12,-1.27 -0.42,-2.5 -1.5,-3.75"
         style="fill:#3899a9;fill-opacity:1;fill-rule:nonzero;stroke:none"
         id="path20" /><path
         d="M 4786.65,1702.38 C 4596.8,1550.24 4444.6,1357.29 4342.54,1136.47 l -0.89,-0.6 -0.11,-0.05 c -10.26,-6.26 -20.47,-12.62 -30.84,-18.93 -1,-0.66 -1.83,-1.38 -2.44,-2.23 -1.6,-2.07 -2.01,-4.58 -1.59,-6.9 l 0.05,-0.11 c 1.14,-5.18 6.28,-9.3 12,-5.88 5.92,3.55 11.77,7.2 17.64,10.84 96.86,59.75 191.26,124.12 256.5,219.66 74.36,108.74 134.47,229.68 196.11,346.19 l 0.21,0.37 c 2.58,5.01 5.28,10.07 7.87,15.08 l 0.4,1.02 c 2.51,6.44 -5.02,12 -10.8,7.45"
         style="fill:#3899a9;fill-opacity:1;fill-rule:nonzero;stroke:none"
         id="path22" /><path
         d="m 4061.73,959.609 c -78.06,126.701 -212.28,212.971 -237.59,368.471 -0.75,4.98 -6.43,4.52 -8.59,1.23 -0.46,-0.64 -0.92,-1.3 -1.11,-2.2 -3.62,-21.57 -6.09,-42.78 -7.02,-63.59 -1.23,-19.74 -1.19,-39.09 0.17,-58.14 5.38,-81.89 33.19,-157.92 89.68,-227.2 82.23,-100.551 194.11,-175.141 259.02,-288.918 2.11,-10.852 3.23,-21.821 2.42,-32.203 l -0.05,-0.168 -0.05,-0.149 c -0.58,-9.32 -2.5,-17.871 -6.6,-26.113 -2.28,-4.828 4.58,-9.391 7.22,-4.5 6.83,12.242 9.55,25.371 9.8,38.832 l 0.95,-1.789 0.83,-1.301 c 0.77,-0.949 1.79,-1.609 2.86,-1.84 4.6,-1.332 10.59,3.598 7.85,9.27 -3.13,6.41 -6.31,12.66 -9.64,18.691 -2.17,4.098 -4.55,8.067 -6.77,12.008 -5.3,23.691 -14.68,47.219 -21.14,68.27 -20.52,66.332 -45.68,132.05 -82.24,191.339"
         style="fill:#3899a9;fill-opacity:1;fill-rule:nonzero;stroke:none"
         id="path24" /><path
         d="m 4756.54,1094.31 -1.68,-0.62 C 4628.69,1011.13 4506.99,921.922 4391.3,825.152 4317.45,763.629 4241.65,701.211 4177.71,628.82 l -1.49,-1.738 -0.16,-0.223 -0.05,-0.16 c -9.72,-10.808 -19.02,-21.937 -28,-33.418 -1.04,-0.562 -2.1,-1.121 -3.19,-1.832 -5.45,-12.039 -10.96,-23.711 -16.42,-35.211 6.62,5.524 13.62,10.582 20.94,15.282 l 2.4,1.539 c 6.23,3.98 12.68,7.812 19.28,11.312 l 6.19,3.289 1.43,0.621 c 45.03,23.09 96.35,38.617 138.98,59.899 61.17,30.449 120.23,66.902 170.04,114.191 88.31,83.449 147.35,191.719 229.31,280.549 l 0.52,0.54 c 13.57,14.73 27.78,29 42.98,42.45 3.42,3.16 0.09,9.19 -3.93,8.4"
         style="fill:#3899a9;fill-opacity:1;fill-rule:nonzero;stroke:none"
         id="path26" /><path
         d="m 4056.42,387.41 c 15.39,27.32 31.4,56.86 47.72,88.559 l -0.06,0.113 c 3.31,6.188 6.5,12.59 9.8,19.047 8.98,17.82 18.04,36.203 27.09,55.141 1.93,3.972 3.75,7.902 5.62,11.98 1.78,3.512 3.44,7.211 5.15,10.809 0.4,1.031 0.97,2 1.42,3.179 l 0.1,0.063 c 1.47,3.051 2.94,6.121 4.35,9.289 6.11,13.332 12.21,26.93 18.46,41 l -0.06,0.109 0.05,0.16 0.16,0.223 c 0.4,1.008 0.91,2.09 1.4,3.156 22.83,52.063 46.14,109.774 68.54,172.492 l 0.15,0.231 0.15,0.469 c 2.39,6.652 4.79,13.3 7.06,20.16 l 0.05,0.16 0.05,0.16 0.05,0.16 0.05,0.172 0.15,0.207 c 0.3,0.973 0.7,1.981 1,2.949 2.64,7.454 5.17,14.844 7.68,22.512 27.29,80.649 52.8,168.7 73.81,262.7 1.07,4.34 2.03,8.62 2.93,12.99 l 0.1,0.06 c 0.27,1.76 0.71,3.48 1.09,5.29 0.34,1.65 0.67,3.31 1.06,4.87 l 0.11,0.05 c 8.06,38.04 15.51,76.97 21.94,116.83 l 0.1,0.32 c 18.45,112.59 29.66,232.21 30.08,356.74 0.03,7.74 -6.29,14.04 -14.03,14.03 -7.69,-0.01 -13.88,-6.26 -13.89,-13.96 -0.08,-37.24 -1.2,-74.05 -3.26,-110.31 l 0.07,-0.37 c -5.66,-102.67 -18.33,-201.25 -35.79,-294.59 l 0.05,-0.11 c -5.74,-30.49 -11.93,-60.4 -18.66,-89.79 -0.43,-2.25 -1.06,-4.6 -1.59,-6.9 l 0.05,-0.11 c -15.14,-66.01 -32.44,-128.99 -50.88,-188.279 l -1.23,-4.012 c -2.43,-7.609 -4.79,-15.05 -7.16,-22.5 -2.09,-6.211 -4.06,-12.367 -5.99,-18.367 -22.34,-67.41 -45.98,-129.851 -69.58,-186.5 -0.8,-2.043 -1.71,-4.14 -2.57,-6.07 -0.64,-1.551 -1.3,-3.113 -1.95,-4.672 -2.92,-6.93 -5.78,-13.691 -8.65,-20.191 l -0.05,-0.168 -0.05,-0.149 c -8.91,-20.742 -17.73,-40.621 -26.42,-59.48 -5.49,-11.942 -10.9,-23.551 -16.42,-34.953 -5.41,-11.348 -10.77,-22.528 -16.2,-33.348 -3.04,-6.18 -6.08,-12.371 -9.12,-18.289 -0.67,-1.293 -1.22,-2.531 -1.88,-3.82 -22.12,-43.793 -43.8,-83.723 -64.21,-119.442 h 32.06"
         style="fill:#27425a;fill-opacity:1;fill-rule:nonzero;stroke:none"
         id="path28" /><path
         d="m 4625.47,1486.33 c -85.46,-130.33 -187.44,-248.2 -304.16,-351.49 -12.65,-11.2 4.71,-30.85 17.35,-19.67 118.33,104.72 221.98,224.48 308.62,356.61 9.26,14.13 -12.57,28.68 -21.81,14.55"
         style="fill:#27425a;fill-opacity:1;fill-rule:nonzero;stroke:none"
         id="path30" /><path
         d="M 4565.68,1151.76 C 4454.19,1044.98 4342.69,938.199 4231.2,831.41 c -12.18,-11.668 5.13,-31.351 17.34,-19.668 111.5,106.789 222.99,213.578 334.48,320.358 12.18,11.67 -5.13,31.35 -17.34,19.66"
         style="fill:#27425a;fill-opacity:1;fill-rule:nonzero;stroke:none"
         id="path32" /><path
         d="M 4539.52,897.82 C 4396.2,801 4259.33,695.191 4129.55,580.879 c -12.69,-11.188 4.67,-30.828 17.34,-19.668 129.79,114.309 266.65,220.121 409.97,316.937 13.98,9.434 -3.54,28.993 -17.34,19.672"
         style="fill:#27425a;fill-opacity:1;fill-rule:nonzero;stroke:none"
         id="path34" /><path
         d="m 4262.65,852.422 c -8.29,94.91 -59.05,175.818 -112.43,252.048 -64.29,91.81 -121.98,179.8 -140.32,292.58 -2.71,16.66 -28.35,11.18 -25.65,-5.46 16.33,-100.43 62.34,-184.8 120.06,-267.24 59.42,-84.86 123.37,-170.741 132.7,-277.389 1.46,-16.762 27.1,-11.18 25.64,5.461"
         style="fill:#27425a;fill-opacity:1;fill-rule:nonzero;stroke:none"
         id="path36" /><path
         d="m 4184.64,662.242 c -30.38,85.488 -79.02,161.719 -131.38,235.238 -58.41,82.02 -118.53,162.85 -177.88,244.19 -9.96,13.65 -29.54,-3.82 -19.67,-17.35 57.12,-78.27 114.76,-156.179 171.24,-234.898 53.56,-74.652 103.35,-151.934 134.27,-238.961 5.64,-15.879 29,-3.93 23.42,11.781"
         style="fill:#27425a;fill-opacity:1;fill-rule:nonzero;stroke:none"
         id="path38" /><path
         d="m 4108.18,503.699 c -38.97,90.633 -101.71,160.321 -172.57,227.52 -70.87,67.203 -143.59,135.332 -177.22,229.57 -5.67,15.871 -29.03,3.922 -23.42,-11.789 31.53,-88.352 96.98,-155.469 163.71,-218.801 75.1,-71.269 144.56,-141.719 186.09,-238.289 6.67,-15.531 30.06,-3.668 23.41,11.789"
         style="fill:#27425a;fill-opacity:1;fill-rule:nonzero;stroke:none"
         id="path40" /><path
         d="M 922.254,657.082 C 774.637,672.75 590.23,649.449 495.008,790.82 c -4.383,6.571 -13.332,1.5 -12.805,-4.789 -1.062,-0.39 -1.988,-1.441 -2,-2.769 l -0.047,-0.422 c 3.485,-23.129 10.164,-45.059 19.61,-65.442 l 0.132,-0.359 c 43.141,-94.758 141.743,-160.367 239.36,-190.277 73.976,-22.52 151.457,-28.942 228.488,-29.543 43.254,-0.25 86.554,1.84 129.814,1.59 40.79,-0.161 80.56,-7.09 120.74,-10.219 1.69,-0.18 3.5,-0.41 5.25,-0.469 4.77,-5.723 9.42,-11.379 13.96,-17.281 3.4,-4.508 10.19,0.371 7.09,4.879 -0.7,1.051 -1.52,2.172 -2.28,3.113 l -0.06,0.168 c -2.09,2.871 -4.06,5.68 -6.19,8.43 1.74,-0.059 3.43,-0.239 5.05,-0.25 4.93,-0.168 7.58,6.281 2.63,8.699 -6.6,3 -13.48,5.703 -20.41,7.973 -3.46,4.089 -6.18,7.839 -9.74,11.668 l -0.67,0.449 c -74.15,83.691 -177.98,129.113 -290.676,141.113"
         style="fill:#3899a9;fill-opacity:1;fill-rule:nonzero;stroke:none"
         id="path42" /><path
         d="m 1147.65,886.961 0.01,-0.301 0.07,-0.18 0.06,-0.171 0.07,-0.18 0.07,-0.188 c 1.63,-13.57 3.26,-27.152 5.07,-40.66 -2.91,10.77 -6.29,21.149 -10.26,31.231 0.64,0.738 1.08,1.718 1.34,2.929 0.77,3.629 1.54,7.27 2.43,10.84 0.14,0.969 0.34,2.059 0.61,2.969 0.26,-2.34 0.75,-4.18 0.53,-6.289 z m 93.32,899.509 c -39.14,-156.51 -78.44,-313.71 -96.04,-474.44 -13.38,-123.27 -13.38,-250.88 -2.07,-375.678 -1.8,-6.852 -3.42,-13.641 -4.96,-20.602 -0.53,-2.121 -1.11,-4.371 -1.51,-6.539 -1.06,-3.949 -1.82,-7.879 -2.75,-11.879 -2.48,5.25 -5.18,10.316 -7.89,15.398 2.43,0.809 4.52,2.801 5.4,5.059 0.99,2.5 0.53,5.359 -2.67,7.41 -1.23,0.86 -2.64,1.653 -3.87,2.512 l -0.12,0.051 c -4.24,2.679 -8.3,5.109 -12.65,7.539 -7.93,11.73 -16.69,22.949 -26.15,33.597 -4.2,5.024 -8.76,9.911 -13.49,14.434 l -0.93,0.859 c -65.61,66.799 -157.239,110.489 -243.739,146.989 -174.875,73.4 -347.504,159.49 -474.578,304.47 -4.324,5.07 -11.824,4.8 -15.515,0.59 l -0.059,-0.13 c -0.809,-0.81 -1.43,-1.86 -1.742,-3.18 -0.383,-1.17 -0.516,-2.43 -0.461,-3.93 11.637,-145.45 89.875,-282.32 214.679,-359.74 74.227,-45.94 159.79,-69.908 245.387,-83.119 103.176,-16.071 213.188,-11.95 306.828,-62.903 5.64,-3.156 11.1,-6.398 16.63,-9.808 l 1.4,-0.481 c 4.33,-7 8.38,-14.301 12.25,-21.668 l -2.17,-9.633 c -1.33,-6.476 5.63,-9.347 10.23,-7.019 4.77,-10.59 9.01,-21.668 12.74,-33.258 l 0.88,0.34 -0.21,0.84 c 0.86,-0.391 1.86,0.179 1.88,1.199 -0.1,6.25 -0.15,12.309 -0.01,18.441 l -0.01,0.309 -0.2,0.52 c -0.16,16.171 -0.57,32.429 -1.04,48.57 -0.02,4.148 -0.05,8.289 -0.21,12.488 4.65,19.281 9.79,38.32 15.1,57.442 l 0.06,0.121 c 32.26,115.849 73.94,229.019 92.87,347.999 11.13,69.42 12.01,137.76 2.59,207.41 -9.08,66.54 -12.93,129.67 -11.65,195.31 l -0.06,0.19 c 0.22,17.01 0.86,34.27 1.85,51.67 0.23,3.73 -1.6,6.19 -4.17,7.36 l -0.13,0.05 c -3.54,1.62 -8.47,0.17 -9.72,-5.16"
         style="fill:#3899a9;fill-opacity:1;fill-rule:nonzero;stroke:none"
         id="path44" /><path
         d="m 427.086,2108.77 c -0.066,-3.07 -0.137,-6.14 -0.152,-9.08 -1.879,-90.6 -1.493,-174.28 26.808,-262.42 28.024,-87.13 74.262,-167.96 136.051,-235.37 67.973,-73.92 154.797,-127.83 231.543,-191.88 48.5,-40.56 91.816,-83.76 129.914,-132.27 l 0.117,-0.05 c 15.871,-20.22 30.684,-41.14 44.766,-63.34 -14.985,43.86 -29.981,88.02 -45.141,131.81 l -0.133,0.36 c -42.879,122.52 -89.554,243.53 -153.437,357.19 -87.953,156.36 -205.793,282.08 -346.371,390.29 l -0.125,0.05 c -8.223,6.55 -16.563,12.86 -25.078,19.11 0.765,-1.24 1.351,-2.54 1.238,-4.4"
         style="fill:#3899a9;fill-opacity:1;fill-rule:nonzero;stroke:none"
         id="path46" /><path
         d="m 1020.27,2040.39 c -65.29,-267.04 -68.747,-544.73 -8.1,-812.84 l -0.38,-1.16 -0.05,-0.11 c -4.89,-12.68 -9.65,-25.4 -14.595,-38.2 -0.434,-1.28 -0.692,-2.49 -0.645,-3.69 -0.016,-2.94 1.34,-5.48 3.324,-7.26 l 0.117,-0.06 c 4.589,-3.86 12.039,-4.02 14.789,2.99 2.86,7.25 5.6,14.56 8.34,21.86 45.62,120.24 85.87,242.91 78.5,373.44 -8.27,148.63 -37.72,298.37 -62.74,445.2 l -0.07,0.48 c -1.13,6.27 -2.21,12.66 -3.33,18.93 l -0.35,1.19 c -2.19,7.49 -12.75,7.29 -14.81,-0.77"
         style="fill:#3899a9;fill-opacity:1;fill-rule:nonzero;stroke:none"
         id="path48" /><path
         d="m 882.434,875.719 c -157.2,59.73 -336.856,44.582 -466.633,166.451 -4.106,3.94 -8.875,-0.38 -8.535,-4.81 0.035,-0.9 0.062,-1.8 0.519,-2.74 11.606,-21.82 24.008,-42.518 37.5,-61.8 12.504,-18.539 25.863,-35.84 40.203,-51.968 61.211,-69.661 138.489,-118.622 236.825,-141.77 142.91,-33.453 294.507,-23.211 431.017,-80.441 9.37,-8.25 17.93,-17.321 24.35,-27.192 l 0.07,-0.168 0.06,-0.179 c 5.91,-8.743 10.08,-17.723 12.07,-27.922 1.29,-5.91 10.58,-5.27 9.57,0.941 -2.31,15.649 -8.93,29.289 -17.96,41.527 l 2.08,-0.949 1.64,-0.597 c 1.33,-0.313 2.71,-0.2 3.83,0.32 5.04,1.98 7.01,10.527 0.65,13.719 -7.22,3.589 -14.37,6.988 -21.51,10.101 -4.77,2.18 -9.64,4.098 -14.34,6.098 -21.06,17.57 -45.67,32.18 -65.96,46.59 -64.05,45.3 -131.872,86.84 -205.446,114.789"
         style="fill:#3899a9;fill-opacity:1;fill-rule:nonzero;stroke:none"
         id="path50" /><path
         d="m 1412.1,1474.92 -1.08,-1.72 c -56.17,-160.86 -103.75,-324.59 -140.74,-490.95 -23.79,-105.988 -48.71,-214.121 -56.12,-323.008 l -0.14,-2.582 v -0.308 l 0.07,-0.172 c -1.27,-16.391 -1.94,-32.758 -2.06,-49.219 -0.55,-1.219 -1.11,-2.441 -1.6,-3.84 3.41,-14.539 6.51,-28.789 9.54,-42.851 2.12,9.5 4.9,18.859 8.23,28.109 0.33,1.031 0.65,2.07 1.09,3.043 2.85,7.848 5.98,15.719 9.49,23.41 l 3.28,7.207 0.85,1.531 c 24.44,51.7 59.71,100.969 83.25,149.391 33.82,69.398 61.62,142.73 73.68,219.398 21.64,135.591 -0.04,273.231 12.21,409.271 l 0.09,0.84 c 2.01,22.54 4.91,45.11 9.26,67.61 0.9,5.2 -6.24,8.32 -9.3,4.84"
         style="fill:#3899a9;fill-opacity:1;fill-rule:nonzero;stroke:none"
         id="path52" /><path
         d="m 780.105,1566.6 0.313,-0.28 c 65.637,-95.88 122.195,-192.92 170.832,-288.57 l 0.117,-0.05 c 15.852,-31.28 30.914,-62.33 45.129,-93.31 1.16,-2.3 2.223,-4.84 3.324,-7.26 l 0.121,-0.06 c 31.899,-69.57 59.779,-137.9 84.089,-203.711 l 1.66,-4.461 c 3.08,-8.468 6.08,-16.769 9.08,-25.066 2.42,-7.023 4.89,-13.891 7.3,-20.594 26.41,-75.777 48.24,-147.988 66.11,-214.996 0.68,-2.371 1.31,-4.871 1.88,-7.203 0.49,-1.84 0.98,-3.687 1.46,-5.539 2.16,-8.211 4.26,-16.25 6.16,-24.051 l 0.07,-0.168 0.06,-0.179 c 6.3,-24.711 12.09,-48.59 17.31,-71.473 3.28,-14.488 6.44,-28.609 9.35,-42.617 2.97,-13.903 5.87,-27.614 8.46,-41.043 1.53,-7.617 3.07,-15.258 4.42,-22.66 0.3,-1.61 0.65,-3.11 0.95,-4.719 6.73,-35.418 12.46,-69.18 17.42,-101.18 h 31.9 c -4.11,26.84 -8.78,54.961 -14.1,84.238 l -0.13,0.063 c -1.3,7.82 -2.85,15.758 -4.35,23.809 -4.22,22.14 -8.77,44.871 -13.69,68.062 -1.02,4.887 -2.09,9.66 -3.23,14.598 -0.82,4.371 -1.88,8.832 -2.83,13.242 -0.34,1.18 -0.5,2.437 -0.91,3.808 l 0.05,0.129 c -0.8,3.75 -1.59,7.512 -2.51,11.321 -3.71,16.152 -7.61,32.531 -11.7,49.441 l -0.13,0.059 -0.06,0.172 -0.01,0.308 c -0.35,1.192 -0.63,2.5 -0.92,3.809 -15.41,62.351 -34.27,130.101 -57.41,201.722 l -0.01,0.309 -0.2,0.52 c -2.43,7.609 -4.87,15.21 -7.55,22.921 l -0.07,0.188 -0.07,0.18 -0.06,0.171 -0.07,0.18 -0.01,0.301 c -0.4,1.059 -0.74,2.258 -1.14,3.32 -2.77,8.5 -5.6,16.867 -8.61,25.469 -31.11,91.04 -68.9,187.49 -114.83,286.17 -2.02,4.62 -4.11,9.11 -6.32,13.66 l 0.06,0.12 c -0.97,1.77 -1.75,3.6 -2.66,5.49 -0.85,1.72 -1.69,3.43 -2.41,5.09 l 0.05,0.11 c -18.97,39.63 -39.102,79.65 -60.798,119.78 l -0.133,0.36 c -61.023,113.56 -133.367,228.45 -218.754,340.3 -5.3,6.95 -15.3,8.25 -22.222,2.9 -6.887,-5.3 -8.129,-15.17 -2.84,-22.08 25.574,-33.4 49.937,-67.16 73.062,-101.05"
         style="fill:#27425a;fill-opacity:1;fill-rule:nonzero;stroke:none"
         id="path54" /><path
         d="m 1024.67,1735.83 c 13.22,-175.61 3.04,-351.44 -30.377,-524.36 -3.621,-18.75 25.457,-24.4 29.087,-5.67 33.88,175.31 44.25,353.97 30.86,532.02 -1.43,19.03 -31,17.03 -29.57,-1.99"
         style="fill:#27425a;fill-opacity:1;fill-rule:nonzero;stroke:none"
         id="path56" /><path
         d="m 1201.55,1394.94 c -26.34,-172.45 -52.67,-344.9 -79.01,-517.358 -2.88,-18.832 26.2,-24.551 29.08,-5.684 26.34,172.462 52.67,344.912 79.01,517.362 2.88,18.84 -26.2,24.56 -29.08,5.68"
         style="fill:#27425a;fill-opacity:1;fill-rule:nonzero;stroke:none"
         id="path58" /><path
         d="M 1353.01,1149.42 C 1291.3,963.98 1241.56,774.93 1204.03,583.121 c -3.67,-18.75 25.41,-24.391 29.08,-5.672 37.53,191.801 87.27,380.86 148.99,566.301 6.01,18.07 -23.14,23.52 -29.09,5.67"
         style="fill:#27425a;fill-opacity:1;fill-rule:nonzero;stroke:none"
         id="path60" /><path
         d="m 1136.25,918.059 c -72.8,79.312 -173.992,116.841 -274.316,148.361 -120.825,37.97 -233.114,77.06 -327.211,165.47 -13.903,13.06 -33.106,-9.51 -19.215,-22.56 83.789,-78.72 183.121,-122.61 291.601,-156.72 111.676,-35.09 228.121,-67.969 309.921,-157.11 12.86,-14 31.99,8.66 19.22,22.559"
         style="fill:#27425a;fill-opacity:1;fill-rule:nonzero;stroke:none"
         id="path62" /><path
         d="m 1197.34,693.961 c -86.09,55.668 -182.17,90.449 -279.711,120.258 -108.809,33.25 -218.344,64.25 -327.531,96.242 -18.325,5.359 -23.832,-23.77 -5.672,-29.09 105.066,-30.781 210.367,-60.879 315.191,-92.492 99.395,-29.977 197.223,-64.938 284.853,-121.598 16,-10.34 28.7,16.449 12.87,26.68"
         style="fill:#27425a;fill-opacity:1;fill-rule:nonzero;stroke:none"
         id="path64" /><path
         d="m 1238.04,499.27 c -97.34,54.359 -201.53,73.57 -311.294,84.972 -109.777,11.387 -221.844,22.34 -316.883,83.598 -16.004,10.308 -28.703,-16.481 -12.859,-26.692 89.098,-57.418 193.961,-72.476 297.359,-83.25 116.357,-12.128 227.107,-27.398 330.817,-85.308 16.68,-9.309 29.46,17.422 12.86,26.68"
         style="fill:#27425a;fill-opacity:1;fill-rule:nonzero;stroke:none"
         id="path66" /><path
         d="m 2095.58,571.441 c 30.32,-30.859 62.33,-60.089 92.65,-90.941 28.65,-29.039 51.78,-62.121 77.89,-92.82 l 0.23,-0.27 h 17.64 c -1.14,2.5 -2.26,5.02 -3.5,7.461 0.46,5.32 1.21,9.891 1.42,15.129 l -0.16,0.801 c 7.06,111.578 -33.94,217.219 -104.88,305.609 -92.97,115.738 -239.52,230.07 -206.4,397.28 1.57,7.73 -8.33,10.51 -12.42,5.7 -1.04,0.47 -2.43,0.38 -3.38,-0.54 l -0.33,-0.27 c -13.95,-18.77 -24.79,-38.96 -32.58,-60.04 l -0.16,-0.35 c -36.78,-97.401 -13.79,-213.581 33.83,-303.901 36.19,-68.34 86.27,-127.801 140.15,-182.848"
         style="fill:#3899a9;fill-opacity:1;fill-rule:nonzero;stroke:none"
         id="path68" /><path
         d="m 2498.81,718.66 -0.21,-0.23 -0.08,-0.16 -0.08,-0.18 -0.08,-0.16 -0.08,-0.18 c -8.48,-10.73 -16.96,-21.461 -25.26,-32.27 5.58,9.649 10.57,19.372 14.91,29.29 0.98,0.07 1.98,0.449 3.02,1.121 3.12,2.019 6.24,4.031 9.41,5.918 l 2.53,1.652 c -1.47,-1.82 -2.43,-3.473 -4.08,-4.801 z m 703.67,568.05 c -138.6,-82.61 -277.77,-165.57 -404.16,-266.42 -96.86,-77.431 -187.35,-167.399 -267.86,-263.411 -6.14,-3.547 -12.08,-7.199 -18.12,-11 -1.87,-1.137 -3.87,-2.297 -5.7,-3.547 -3.54,-2.031 -6.87,-4.273 -10.36,-6.422 1.99,5.449 3.67,10.949 5.36,16.442 2.29,-1.153 5.18,-1.223 7.39,-0.262 2.48,1.058 4.18,3.41 3.38,7.129 -0.26,1.472 -0.69,3.031 -0.95,4.511 l -0.05,0.122 c -1.1,4.898 -2.23,9.488 -3.58,14.277 2.73,13.902 4.52,28.019 5.4,42.242 0.59,6.52 0.84,13.199 0.71,19.731 l -0.04,1.277 c 1.11,93.633 -32.51,189.411 -67.62,276.481 -71.25,175.76 -131.92,358.88 -118.7,551.21 0.54,6.64 -4.94,11.77 -10.53,11.42 l -0.12,-0.05 c -1.15,0.01 -2.33,-0.3 -3.5,-1.01 -1.08,-0.55 -2.07,-1.35 -3.1,-2.44 -94.94,-110.8 -136.84,-262.79 -103.74,-405.88 19.75,-85.03 63.09,-162.61 114.07,-232.62 61.35,-84.502 141.85,-159.611 171.73,-261.931 1.73,-6.227 3.29,-12.379 4.78,-18.7 l 0.63,-1.339 c -1.9,-8.008 -4.22,-16.028 -6.72,-23.969 l -8.36,-5.25 c -5.53,-3.621 -2.66,-10.582 2.23,-12.211 -4.14,-10.84 -9.01,-21.668 -14.6,-32.469 l 0.87,-0.402 0.44,0.75 2.18,-0.481 c 4.35,4.473 8.63,8.782 13.08,13.004 l 0.2,0.219 0.23,0.519 c 11.35,11.5 22.59,23.27 33.71,34.981 2.92,2.937 5.84,5.891 8.71,8.949 16.95,10.301 34.07,20.078 51.38,29.789 l 0.13,0.051 c 104.89,58.801 214.53,109.039 312.25,179.5 57.07,41.059 106.16,88.62 148.91,144.41 40.78,53.36 82.83,100.59 130.29,145.97 l 0.08,0.18 c 12.23,11.83 24.91,23.55 37.95,35.11 2.81,2.47 3.26,5.5 2.28,8.15 l -0.05,0.12 c -1.35,3.66 -5.85,6.14 -10.51,3.27"
         style="fill:#3899a9;fill-opacity:1;fill-rule:nonzero;stroke:none"
         id="path70" /><path
         d="m 2857.17,2091.1 c -2.21,-2.12 -4.44,-4.23 -6.54,-6.3 -65.58,-62.54 -124.64,-121.81 -167.19,-204.03 -42.02,-81.3 -66.74,-171.09 -70.98,-262.43 -4.5,-100.33 18.49,-199.91 27.18,-299.49 5.44,-62.99 5.35,-124.17 -2.18,-185.38 l 0.04,-0.12 c -3.15,-25.51 -7.54,-50.77 -13.35,-76.41 20.53,41.55 41.28,83.32 61.64,124.95 l 0.15,0.35 c 56.65,116.8 109.56,235.21 145.12,360.65 48.86,172.61 54.93,344.83 32.55,520.81 l -0.05,0.13 c -1.15,10.44 -2.56,20.81 -4.14,31.25 -0.33,-1.41 -0.84,-2.75 -2.25,-3.98"
         style="fill:#3899a9;fill-opacity:1;fill-rule:nonzero;stroke:none"
         id="path72" /><path
         d="m 3226.93,1622.23 c -235.4,-141.98 -434.76,-335.31 -582.12,-567.36 l -1.09,-0.55 -0.12,-0.05 c -12.43,-5.46 -24.82,-11.05 -37.38,-16.57 -1.21,-0.59 -2.25,-1.27 -3.07,-2.15 -2.1,-2.06 -2.94,-4.8 -2.81,-7.48 l 0.05,-0.12 c 0.5,-5.98 5.64,-11.37 12.55,-8.38 7.15,3.08 14.27,6.3 21.38,9.5 117.42,52.42 232.8,110.38 320.16,207.64 99.57,110.66 185,237.12 271.48,358.39 l 0.29,0.39 c 3.64,5.22 7.42,10.48 11.07,15.71 l 0.6,1.07 c 3.77,6.85 -3.83,14.19 -10.99,9.96"
         style="fill:#3899a9;fill-opacity:1;fill-rule:nonzero;stroke:none"
         id="path74" /><path
         d="m 2303.83,898.809 c -68.48,153.581 -205.89,270.301 -210.97,448.261 -0.1,5.69 -6.53,6.02 -9.43,2.66 -0.61,-0.66 -1.23,-1.32 -1.58,-2.3 -7.28,-23.61 -13.22,-47 -17.38,-70.17 -4.33,-21.93 -7.18,-43.61 -8.51,-65.15 -6.24,-92.52 13.53,-181.84 66.44,-267.891 77.05,-124.93 191.2,-225.219 246.86,-362.367 0.76,-12.461 0.36,-24.93 -2.11,-36.43 l -0.07,-0.184 -0.08,-0.156 c -2.04,-10.363 -5.47,-19.641 -11.3,-28.262 -3.27,-5.07 3.73,-11.211 7.43,-6.121 9.47,12.68 14.47,26.992 16.78,42.02 l 0.79,-2.137 0.74,-1.594 c 0.71,-1.156 1.76,-2.058 2.92,-2.488 4.96,-2.18 12.41,2.449 10.19,9.219 -2.55,7.652 -5.17,15.121 -8.01,22.371 -1.81,4.91 -3.88,9.73 -5.78,14.469 -2.39,27.32 -9.38,55.082 -13.46,79.621 -13.05,77.359 -31.41,154.75 -63.47,226.629"
         style="fill:#3899a9;fill-opacity:1;fill-rule:nonzero;stroke:none"
         id="path76" /><path
         d="m 3102.2,945.68 -1.98,-0.45 C 2946.55,871.648 2796.89,789.949 2652.84,698.879 2560.9,641.02 2466.66,582.461 2384.22,510.93 l -1.94,-1.711 -0.2,-0.231 -0.08,-0.156 c -12.52,-10.66 -24.59,-21.723 -36.36,-33.25 -1.25,-0.473 -2.51,-0.934 -3.85,-1.57 -7.91,-12.672 -15.82,-24.91 -23.66,-36.981 8.23,5.199 16.83,9.821 25.73,13.981 0.97,0.5 1.93,1 2.93,1.367 7.57,3.531 15.36,6.851 23.29,9.781 l 7.43,2.762 1.68,0.476 c 53.89,19.122 113.7,28.844 164.63,46.301 73.07,24.942 144.67,56.93 207.54,102.442 111.41,80.25 193.72,192.668 298.83,279.898 l 0.67,0.531 c 17.39,14.469 35.44,28.328 54.48,41.11 4.31,3.031 1.48,10.281 -3.14,10"
         style="fill:#3899a9;fill-opacity:1;fill-rule:nonzero;stroke:none"
         id="path78" /><path
         d="m 2303.98,387.41 c 9.06,13.41 18.17,27.031 27.34,41.051 2.75,4.168 5.37,8.289 8.08,12.59 2.51,3.648 4.93,7.558 7.39,11.34 0.6,1.07 1.38,2.078 2.06,3.328 l 0.13,0.051 c 2.1,3.21 4.2,6.421 6.26,9.761 8.83,14.02 17.7,28.328 26.81,43.168 l -0.05,0.133 0.08,0.156 0.2,0.231 c 0.61,1.082 1.33,2.203 2.06,3.34 33.34,54.89 68.1,116.023 102.58,182.933 l 0.2,0.219 0.23,0.519 c 3.68,7.09 7.35,14.18 10.93,21.52 l 0.08,0.18 0.08,0.16 0.08,0.18 0.08,0.171 0.21,0.219 c 0.47,1.031 1.07,2.121 1.55,3.149 4.07,7.953 8.01,15.851 11.98,24.07 42.63,86.25 84.38,181.051 121.98,283.191 1.84,4.7 3.56,9.34 5.23,14.11 l 0.12,0.05 c 0.57,1.93 1.32,3.78 2.02,5.76 0.62,1.81 1.24,3.6 1.91,5.28 l 0.12,0.05 c 14.72,41.41 28.9,83.89 42.07,127.57 l 0.15,0.35 c 37.51,123.34 67.97,255.65 87.08,395.06 1.2,8.66 -4.94,16.66 -13.6,17.8 -8.62,1.15 -16.49,-4.93 -17.66,-13.54 -5.65,-41.69 -12.42,-82.76 -20.14,-123.07 l 0.01,-0.42 c -21.7,-114.15 -50.65,-222.67 -84.17,-324.6 l 0.04,-0.12 c -11,-33.29 -22.41,-65.87 -34.35,-97.8 -0.81,-2.44 -1.87,-4.98 -2.81,-7.48 l 0.05,-0.12 c -26.85,-71.669 -55.65,-139.618 -85.18,-203.27 l -1.98,-4.309 c -3.84,-8.16 -7.62,-16.129 -11.39,-24.121 -3.26,-6.648 -6.39,-13.258 -9.45,-19.691 C 2457.28,704.398 2421.47,638 2386.54,578.09 c -1.2,-2.168 -2.52,-4.371 -3.77,-6.41 -0.97,-1.641 -1.93,-3.289 -2.9,-4.938 -4.3,-7.32 -8.52,-14.472 -12.72,-21.32 l -0.07,-0.184 -0.08,-0.156 c -13.08,-21.902 -25.93,-42.852 -38.48,-62.672 -7.96,-12.551 -15.75,-24.738 -23.63,-36.691 -7.76,-11.887 -15.45,-23.617 -23.14,-34.918 -4.33,-6.481 -8.66,-12.949 -12.95,-19.121 -0.94,-1.348 -1.74,-2.649 -2.68,-4 l -0.18,-0.27 h 38.04"
         style="fill:#27425a;fill-opacity:1;fill-rule:nonzero;stroke:none"
         id="path80" /><path
         d="m 3014.06,1404.38 c -115.22,-133.18 -247.08,-249.95 -393.26,-348.16 -15.85,-10.66 0.65,-35.27 16.48,-24.62 148.2,99.57 282.23,218.18 399.03,353.22 12.49,14.43 -9.77,33.99 -22.25,19.56"
         style="fill:#27425a;fill-opacity:1;fill-rule:nonzero;stroke:none"
         id="path82" /><path
         d="M 2897.03,1038.6 C 2756.17,935.68 2615.31,832.77 2474.45,729.852 c -15.39,-11.243 1.06,-35.891 16.48,-24.622 140.86,102.911 281.72,205.829 422.58,308.75 15.39,11.24 -1.06,35.88 -16.48,24.62"
         style="fill:#27425a;fill-opacity:1;fill-rule:nonzero;stroke:none"
         id="path84" /><path
         d="M 2829.72,758.082 C 2654.7,671.102 2485.57,573.07 2323.1,464.449 c -15.89,-10.617 0.62,-35.219 16.48,-24.617 162.47,108.609 331.61,206.637 506.62,293.617 17.06,8.492 0.37,33 -16.48,24.633"
         style="fill:#27425a;fill-opacity:1;fill-rule:nonzero;stroke:none"
         id="path86" /><path
         d="m 2512.82,748.68 c 4.92,107.539 -39.82,205.761 -88.2,299.12 -58.27,112.45 -109.72,219.65 -113.37,348.7 -0.55,19.06 -30.09,16.78 -29.54,-2.27 3.25,-114.93 42.15,-216.31 94.46,-317.28 53.85,-103.95 112.64,-209.708 107.11,-330.559 -0.87,-18.981 28.68,-16.582 29.54,2.289"
         style="fill:#27425a;fill-opacity:1;fill-rule:nonzero;stroke:none"
         id="path88" /><path
         d="m 2396.98,547.352 c -21.23,100.289 -64.3,192.949 -111.94,283.14 -53.14,100.598 -108.39,200.128 -162.69,300.108 -9.12,16.78 -33.65,0.15 -24.62,-16.48 52.25,-96.21 105.15,-192.1 156.64,-288.722 48.82,-91.628 93.01,-185.648 114.62,-287.746 3.94,-18.632 31.89,-8.75 27.99,9.7"
         style="fill:#27425a;fill-opacity:1;fill-rule:nonzero;stroke:none"
         id="path90" /><path
         d="m 2086.87,666.262 c 69.99,-86.793 134.3,-172.02 167.94,-278.852 h 30.95 c -30.63,104.512 -89.42,190.25 -157.38,274.461 -69.32,85.879 -140.57,173.07 -164.14,283.649 -3.97,18.628 -31.92,8.742 -27.99,-9.688 22.09,-103.672 85.36,-188.652 150.62,-269.57"
         style="fill:#27425a;fill-opacity:1;fill-rule:nonzero;stroke:none"
         id="path92" /><path
         d="m 1272.75,428.461 h 1042.21 c 79.55,0 127.03,64.5 106.04,144.051 L 1628.8,3575.62 c -20.99,79.56 -102.49,144.04 -182.05,144.04 H 404.539 c -79.551,0 -127.031,-64.48 -106.047,-144.04 L 1090.7,572.512 c 20.99,-79.551 102.49,-144.051 182.05,-144.051"
         style="fill:#36414a;fill-opacity:1;fill-rule:nonzero;stroke:none"
         id="path94" /><path
         d="M 1282.52,549.23 H 2283.1 c 79.55,0 127.03,64.489 106.05,144.051 L 1628.8,3575.62 c -20.99,79.56 -102.49,144.04 -182.05,144.04 H 446.18 c -79.559,0 -127.039,-64.48 -106.051,-144.04 L 1100.48,693.281 c 20.99,-79.562 102.49,-144.051 182.04,-144.051"
         style="fill:#607783;fill-opacity:1;fill-rule:nonzero;stroke:none"
         id="path96" /><path
         d="m 471.32,3662.86 h 1032.83 c 45.48,0 92.08,-36.87 104.08,-82.36 L 2403.01,567.621 c 12,-45.473 -15.15,-82.351 -60.63,-82.351 H 1309.55 c -45.48,0 -92.08,36.878 -104.07,82.351 L 410.691,3580.5 c -12,45.49 15.145,82.36 60.629,82.36"
         style="fill:#edf0f1;fill-opacity:1;fill-rule:nonzero;stroke:none"
         id="path98" /><path
         d="m 1075.32,3634.89 c -40.33,-0.74 -10.25,-86.34 30.1,-85.61 40.33,0.75 10.25,86.35 -30.1,85.61"
         style="fill:#36414a;fill-opacity:1;fill-rule:nonzero;stroke:none"
         id="path100" /><g
         id="g102"
         transform="scale(10)"><text
           transform="matrix(0.93999194,0.00272598,0.33006024,-0.99999628,95.5367,334.353)"
           style="font-variant:normal;font-weight:600;font-size:15.3173px;font-family:Montserrat;-inkscape-font-specification:Montserrat-SemiBold;writing-mode:lr-tb;fill:#51c292;fill-opacity:1;fill-rule:nonzero;stroke:none"
           id="text106"><tspan
             x="0 11.135664 15.363235 28.260386 32.487957"
             y="0"
             sodipodi:role="line"
             id="tspan104">C O D</tspan></text></g><path
         d="m 0,436.32 v -57.91 h 5000 v 57.91 H 0"
         style="fill:#36414a;fill-opacity:1;fill-rule:nonzero;stroke:none"
         id="path108" /><path
         d="m 3749.44,2505.09 -70,-189.11 -265.61,53.11 -12.18,-46.6 -3.74,-14.3 283.74,-123.46 c 56.35,-24.52 117.47,23.2 107.33,83.82 l -39.54,236.54"
         style="fill:#fabeb3;fill-opacity:1;fill-rule:nonzero;stroke:none"
         id="path110" /><path
         d="m 3788.98,2268.55 -39.54,236.54 -33.98,-91.79 c 18.42,-60.92 31.69,-121.99 19.37,-187.32 6.22,0.92 12.46,2.01 18.77,3.47 -6.31,-1.46 -12.55,-2.55 -18.77,-3.47 -0.41,-2.17 -0.76,-4.34 -1.23,-6.53 0.47,2.19 0.82,4.36 1.23,6.53 -118.68,-17.37 -222.48,57.22 -333.18,96.51 l -3.74,-14.3 283.74,-123.46 c 56.35,-24.52 117.47,23.2 107.33,83.82"
         style="fill:#f79984;fill-opacity:1;fill-rule:nonzero;stroke:none"
         id="path112" /><path
         d="m 3304.23,2422.43 -51.41,-32.56 51.41,-66.93 42.38,-19.12 51.3,4.37 15.92,60.9 -109.6,53.34"
         style="fill:#f79984;fill-opacity:1;fill-rule:nonzero;stroke:none"
         id="path114" /><path
         d="m 3401.65,2322.49 -30.05,13.33 c -19.51,10.32 -34.42,27.62 -41.72,48.45 l -5.84,16.65 -58.04,26.93 c -3.78,1.75 -5.75,5.97 -4.68,10 1.25,4.66 6.1,7.37 10.73,6 l 76.9,-10.51 c 18.78,-2.57 35.33,-13.64 44.89,-30 l 19.99,-34.25 -12.18,-46.6"
         style="fill:#fabeb3;fill-opacity:1;fill-rule:nonzero;stroke:none"
         id="path116" /><path
         d="m 3524.33,3167.53 c -5.85,-68.25 39.04,-137.65 103.67,-160.31 32.34,-11.34 71.2,-13.77 92.51,-40.58 20.06,-25.23 15.73,-61.13 13.7,-93.3 -2.03,-32.16 2.9,-70.67 31.44,-85.62 19.77,-10.36 41.98,-5.01 64.53,0.34 18.61,4.42 37.45,8.84 55.33,4.42 39.04,-9.65 55.96,-56.12 57.84,-96.29 1.88,-40.16 -4.31,-82.9 14.17,-118.61 18.03,-34.86 56.92,-55.27 95.87,-60.14 38.94,-4.87 78.28,3.64 116.1,14.13 46.23,12.83 92.33,29.08 131.33,57.03 38.99,27.95 70.51,69.06 78.12,116.43 7.61,47.37 -12.67,100.37 -54.73,123.45 -24.62,13.51 -56.58,17.99 -71.78,41.59 -16.12,25.01 -4.83,57.82 6.28,85.42 11.1,27.59 20.96,61.36 2.95,85.02 -32.73,42.99 -116.19,3.75 -148.89,46.76 -12.69,16.69 -11.89,39.52 -13.08,60.45 -5.76,101.44 -77.17,196.08 -173.14,229.45 -63.62,22.14 -135.48,16.43 -196.21,-11.95 -31.02,-14.49 -51.97,-40.21 -80.57,-56.57 -27.44,-15.7 -54.46,-20.4 -78.3,-43.87 -26.16,-25.77 -43.98,-60.46 -47.14,-97.25"
         style="fill:#be2e22;fill-opacity:1;fill-rule:nonzero;stroke:none"
         id="path118" /><path
         d="m 4324.21,2828.48 c -24.62,13.51 -56.58,17.99 -71.78,41.59 -16.12,25.01 -4.83,57.82 6.28,85.42 11.1,27.59 20.96,61.36 2.95,85.02 -32.73,42.99 -116.19,3.75 -148.89,46.76 -12.69,16.69 -11.89,39.52 -13.08,60.45 -5.73,100.89 -76.43,195 -171.62,228.85 62.77,-40.37 110.49,-106.38 127.32,-178.85 5.73,-24.72 7.13,-50.07 6.55,-75.38 -0.8,-35.48 -23.21,-80.23 22.24,-96.78 31.97,-11.65 66.84,-7.39 91.36,-36.26 14.36,-16.9 14.07,-37.31 7.8,-57.53 -6.13,-19.73 -9.98,-36.81 -2.86,-57.03 6.89,-19.51 20.66,-36.97 34.46,-52.09 12.65,-13.85 25.24,-28.28 25.83,-48.06 0.56,-19.25 -9.54,-38.87 -22.49,-52.57 -24.55,-25.95 -63.7,-38.45 -98.16,-43.65 -32.36,-4.89 -64.58,-1.36 -89.97,20.89 -23.74,20.8 -35.85,52.55 -47.07,81.14 -6.38,16.28 -12.04,32.25 -25.45,44.23 -11.6,10.36 -26.4,15.8 -41.28,19.52 -34.98,8.75 -75.57,4.78 -108.09,21.34 -29.06,14.8 -34.2,45.97 -32.85,75.56 1.29,28.32 7.9,62.91 -17.74,82.8 -13.6,10.56 -30.96,14.77 -47.45,18.34 -17.19,3.72 -34.34,7.83 -51.09,13.25 -36.58,11.83 -71.43,30.15 -94.68,61.64 -20.59,27.87 -26.85,62.11 -24.4,96.18 0.25,3.43 0.63,6.89 1.04,10.35 -9.09,-17.42 -15.07,-36.43 -16.76,-56.08 -5.85,-68.25 39.04,-137.65 103.67,-160.31 32.33,-11.34 71.2,-13.77 92.51,-40.58 20.06,-25.23 15.73,-61.13 13.7,-93.3 -2.03,-32.16 2.9,-70.67 31.44,-85.62 19.77,-10.36 41.98,-5.01 64.53,0.34 18.61,4.42 37.45,8.84 55.33,4.42 39.04,-9.65 55.96,-56.12 57.84,-96.29 1.88,-40.16 -4.31,-82.9 14.17,-118.61 18.03,-34.86 56.92,-55.27 95.87,-60.14 38.94,-4.87 78.28,3.64 116.1,14.13 46.23,12.83 92.33,29.08 131.33,57.03 38.99,27.95 70.51,69.06 78.12,116.43 7.61,47.37 -12.67,100.37 -54.73,123.45"
         style="fill:#8e2e1c;fill-opacity:1;fill-rule:nonzero;stroke:none"
         id="path120" /><path
         d="m 4149.51,525.039 -68.63,-13.418 -27.9,195.91 116.52,17.028 -19.99,-199.52"
         style="fill:#fabeb3;fill-opacity:1;fill-rule:nonzero;stroke:none"
         id="path122" /><path
         d="m 3840.7,1975.55 296.25,14.93 21.25,-237 -37.26,-424.22 66.14,-140.01 -17.58,-464.691 -116.52,-17.028 -89.48,535.189 -122.8,732.83"
         style="fill:#252d33;fill-opacity:1;fill-rule:nonzero;stroke:none"
         id="path124" /><path
         d="m 4155.63,543.23 33.25,-100.75 -335.79,-4.992 3.05,22.321 209.95,95.222 28.33,-22.133 61.21,10.332"
         style="fill:#ffffff;fill-opacity:1;fill-rule:nonzero;stroke:none"
         id="path126" /><path
         d="m 4327.23,530.559 -72.96,-14.258 -32.98,208.258 120.88,10.523 -14.94,-204.523"
         style="fill:#fabeb3;fill-opacity:1;fill-rule:nonzero;stroke:none"
         id="path128" /><path
         d="m 4294.69,1985.69 c -92.46,-7.45 -184.68,-17.82 -276.48,-31.15 l 108.91,-667.34 94.17,-562.641 120.88,10.523 14.94,338.528 c 4.97,101.42 -25.08,201.45 -85.1,283.34 l 73.32,243.57 c 14.74,24.99 40.36,176.61 23.69,323.72 -4.22,37.26 -36.94,64.47 -74.33,61.45"
         style="fill:#33414b;fill-opacity:1;fill-rule:nonzero;stroke:none"
         id="path130" /><path
         d="m 4333.76,549.91 35.34,-107.121 -356.97,-5.301 3.24,23.731 223.18,101.23 30.13,-23.527 65.08,10.988"
         style="fill:#ffffff;fill-opacity:1;fill-rule:nonzero;stroke:none"
         id="path132" /><path
         d="m 4289.98,1484.57 c -27.59,-75.07 -55.17,-150.15 -82.76,-225.23 -4.56,-12.42 14.77,-15.98 19.29,-3.68 27.58,75.08 55.17,150.16 82.74,225.23 4.57,12.43 -14.75,15.98 -19.27,3.68"
         style="fill:#252d33;fill-opacity:1;fill-rule:nonzero;stroke:none"
         id="path134" /><path
         d="m 4282.03,1318.18 c -5.48,1.46 -10.56,-1.39 -13.04,-6.6 l -28.71,-60.54 c -2.31,-4.87 0.77,-11.22 5.61,-12.51 5.47,-1.44 10.56,1.4 13.03,6.61 9.58,20.18 19.15,40.35 28.72,60.54 2.32,4.87 -0.77,11.22 -5.61,12.5"
         style="fill:#252d33;fill-opacity:1;fill-rule:nonzero;stroke:none"
         id="path136" /><path
         d="m 4321.93,1915.12 c -124.92,-95.59 -291.41,-132.5 -445.02,-98.59 -12.46,2.75 -18.55,-16.32 -5.95,-19.1 160.93,-35.52 333.45,2.65 464.33,102.8 10.24,7.84 -3.19,22.67 -13.36,14.89"
         style="fill:#d1dadd;fill-opacity:1;fill-rule:nonzero;stroke:none"
         id="path138" /><path
         d="m 3947.15,2398.35 c -8.23,23.63 -21.79,45.08 -40.5,61.83 -3.88,3.48 -9.98,4.84 -14.12,0.77 -3.52,-3.45 -4.95,-10.4 -0.78,-14.13 4.21,-3.76 8.2,-7.76 11.92,-12.01 1.85,-2.13 3.65,-4.31 5.37,-6.54 0.86,-1.11 1.7,-2.25 2.53,-3.39 l 1.09,-1.53 0.1,-0.13 0.29,-0.45 c 3.03,-4.59 5.81,-9.32 8.28,-14.22 1.28,-2.52 2.47,-5.08 3.59,-7.66 0.56,-1.3 1.09,-2.6 1.61,-3.92 l 0.67,-1.76 0.24,-0.6 0.17,-0.52 c 1.72,-4.93 6.25,-9.13 11.91,-7.65 4.72,1.25 9.47,6.63 7.63,11.91"
         style="fill:#d1dadd;fill-opacity:1;fill-rule:nonzero;stroke:none"
         id="path140" /><path
         d="m 3846.86,2829.37 c 17.07,-4.46 51.96,15.76 86.3,35.98 31.43,18.5 62.4,37 78.86,36.59 34.43,-0.86 124.8,4.49 150.8,-80.29 22.02,-71.86 -19.64,-161.23 -41.91,-234.54 -11.77,-38.73 -26.3,-77.28 -29.6,-116.96 -5,-60.98 17.46,-119.54 51.17,-167.67 33.72,-48.04 181.87,-186.45 235.58,-380.61 -119.35,-139.47 -371.05,-181.18 -537.36,-133.48 -10.22,131.51 -81.44,501.72 -84.03,636.06 -0.16,8.04 -3.26,13.51 -8.21,17.94 -43.53,38.96 -66.87,95.72 -52.24,152.28 23.32,90.18 63.26,138.24 150.64,234.7"
         style="fill:#ffffff;fill-opacity:1;fill-rule:nonzero;stroke:none"
         id="path142" /><g
         id="g144"><g
           id="g146"
           clip-path="url(#clipPath150)"><path
             d="m 3756.68,2322.69 h 8.3516 v 101.219 h -8.3516 z"
             style="fill:#e0c2bc;fill-opacity:1;fill-rule:nonzero;stroke:none"
             id="path152" /></g></g><path
         d="m 4096.17,2502.09 c 1.08,5.06 2.28,10.11 3.58,15.15 0.02,0.01 0.03,0.01 0.05,0.01 -1.29,-5.01 -2.48,-10.03 -3.55,-15.06 -0.03,-0.03 -0.05,-0.07 -0.08,-0.1"
         style="fill:#d8dae8;fill-opacity:1;fill-rule:nonzero;stroke:none"
         id="path154" /><path
         d="m 4099.75,2517.24 c 5.95,23.09 13.87,45.97 20.87,68.9 -7,-22.93 -14.89,-45.8 -20.82,-68.89 -0.02,0 -0.03,0 -0.05,-0.01 m 20.92,69.06 c 0.03,0.09 0.05,0.18 0.08,0.26 -0.03,-0.08 -0.05,-0.17 -0.08,-0.26 m 0.12,0.41 c 0.04,0.13 0.08,0.27 0.12,0.4 v 0 c -0.04,-0.14 -0.08,-0.27 -0.12,-0.4"
         style="fill:#b59587;fill-opacity:1;fill-rule:nonzero;stroke:none"
         id="path156" /><path
         d="m 3814.92,2248.59 c -13.89,3.04 -27.56,6.37 -40.86,10.12 -3.35,21.8 -6.43,43.24 -9.03,63.98 -4.7,40.12 -7.8,74.9 -8.35,100.96 0,0.07 0,0.15 0,0.22 0,0.02 0,0.03 0,0.04 -0.01,0.18 -0.01,0.36 -0.01,0.54 v 0 c -0.16,8.04 -3.26,13.51 -8.21,17.94 v 0 c -19.3,17.28 -34.61,38.07 -44.42,60.78 21.83,-3.38 43.52,-5.01 64.96,-5.01 114.2,0 221.05,46.28 302.53,120.94 6.18,5.66 13.35,8.13 20.34,8.13 18.6,0 35.87,-17.53 29.41,-38.92 l -0.37,-1.2 v 0 c -0.04,-0.13 -0.08,-0.27 -0.12,-0.4 -0.01,-0.05 -0.03,-0.1 -0.04,-0.15 -0.03,-0.08 -0.05,-0.17 -0.08,-0.26 -0.02,-0.05 -0.03,-0.1 -0.05,-0.16 -7,-22.93 -14.92,-45.81 -20.87,-68.9 -1.3,-5.04 -2.5,-10.09 -3.58,-15.15 -11.93,-17.24 -23.22,-34.95 -34.67,-52.53 -23.83,-36.58 -49.41,-69.73 -82.28,-98.68 -32.04,-28.24 -67.42,-52.48 -105.04,-72.65 -19.28,-10.33 -39.15,-20.27 -59.26,-29.64"
         style="fill:#e4e9eb;fill-opacity:1;fill-rule:nonzero;stroke:none"
         id="path158" /><path
         d="m 3996.94,2851.19 c -9.9,-23.65 -28.78,-43.26 -52.67,-52.98 -26.82,-10.9 -57.49,-8.74 -82.85,5.02 -5.67,3.07 -10.37,-5.76 -4.7,-8.83 27.52,-14.93 61.42,-17.58 90.59,-5.72 26.2,10.66 47.53,31.71 58.46,57.8 2.47,5.9 -6.34,10.65 -8.83,4.71"
         style="fill:#d1dadd;fill-opacity:1;fill-rule:nonzero;stroke:none"
         id="path160" /><path
         d="m 3292.14,2474.52 -117.13,227.37 121.7,62.7 117.13,-227.38 -121.7,-62.69"
         style="fill:#6eb82e;fill-opacity:1;fill-rule:nonzero;stroke:none"
         id="path162" /><path
         d="m 3295.79,2497.26 4.44,2.29 -97.85,189.95 88.52,45.61 95.57,-185.51 -92.97,-47.9 2.29,-4.44 4.44,2.29 -4.44,-2.29 2.29,-4.45 101.86,52.48 -104.73,203.29 -106.3,-54.77 104.72,-203.29 4.45,2.29 -2.29,4.45"
         style="fill:#f2e0b4;fill-opacity:1;fill-rule:nonzero;stroke:none"
         id="path164" /><path
         d="m 3264.57,2605.72 v 0 c -8.61,16.69 -2.04,37.19 14.65,45.79 16.68,8.6 37.18,2.04 45.79,-14.65 8.59,-16.69 2.03,-37.19 -14.66,-45.79 -16.69,-8.6 -37.19,-2.03 -45.78,14.65"
         style="fill:#f2e0b4;fill-opacity:1;fill-rule:nonzero;stroke:none"
         id="path166" /><path
         d="m 3429.09,2582.77 -2.13,1 c 0,0 -24.56,11.53 -43.99,20.66 -9.99,4.69 -21.75,-1.04 -24.18,-11.81 -2.21,-9.74 -5.03,-19.49 -5.41,-22.26 -3.89,-28.05 -2.91,-56.55 3.6,-84.13 3.53,-14.97 6.87,-34.88 22.65,-41.73 2.51,-1.09 31.89,-13.09 31.68,-13.77 l 5.16,18.04 12.95,45.41 -0.33,88.59"
         style="fill:#fabeb3;fill-opacity:1;fill-rule:nonzero;stroke:none"
         id="path168" /><path
         d="m 3634.3,2471.55 -214.62,35.3 -8.37,-76.13 367.91,-122.53 11.5,77.93 8.59,58.29 -165.01,27.14"
         style="fill:#fabeb3;fill-opacity:1;fill-rule:nonzero;stroke:none"
         id="path170" /><path
         d="m 3799.31,2444.41 -165.01,27.14 -214.62,35.3 -6.62,-60.22 c 121.7,-35.9 243.59,-92.36 372.18,-97.6 l 5.48,37.09 8.59,58.29"
         style="fill:#fabeb3;fill-opacity:1;fill-rule:nonzero;stroke:none"
         id="path172" /><path
         d="m 3823.3,2349.09 c 85.88,85.27 171.08,162.81 238.27,267.26 -30.4,18.89 -55.88,47.61 -86.32,66.42 l -175.94,-238.36 -14.07,-95.38 c 12.62,-0.51 25.31,-0.45 38.06,0.06"
         style="fill:#fabeb3;fill-opacity:1;fill-rule:nonzero;stroke:none"
         id="path174" /><path
         d="m 3986.06,2697.4 -10.81,-14.63 c 30.44,-18.81 55.92,-47.53 86.32,-66.42 -67.19,-104.45 -152.39,-181.99 -238.27,-267.26 -12.75,-0.51 -25.44,-0.57 -38.06,-0.06 -128.59,5.24 -234.12,40.95 -355.82,76.85 l -18.11,4.84 367.91,-122.53 c 119.99,-39.96 322.26,311.36 322.26,311.36 l -115.42,77.85"
         style="fill:#f79984;fill-opacity:1;fill-rule:nonzero;stroke:none"
         id="path176" /><path
         d="m 4109.1,2626.27 c -40.11,26.6 -80.21,53.2 -120.3,79.81 -4.51,2.99 -11.17,0.32 -13.54,-4.12 -2.75,-5.15 -0.39,-10.53 4.12,-13.53 l 120.3,-79.81 c 4.51,-2.99 11.17,-0.33 13.53,4.12 2.75,5.15 0.4,10.53 -4.11,13.53"
         style="fill:#d1dadd;fill-opacity:1;fill-rule:nonzero;stroke:none"
         id="path178" /><path
         d="m 3733.85,3176.44 c 56.71,-27.95 135.84,-72.16 195.93,-32.06 10.84,7.23 18.72,15.9 24.2,25.3 6.78,0.58 13.68,-0.91 20.76,-5.93 18.93,-13.42 26.96,-40.38 19.47,-62.17 -7.98,-23.22 -26.63,-31.22 -50.97,-34.45 4.56,-66.79 23.44,-117.04 43.56,-184.52 -7.43,-34.42 -19.92,-54.35 -47.33,-67.34 -27.4,-13.01 -34,-12.58 -62.54,-2.31 -6.24,33.7 -13.77,79.46 -25.28,111.74 -21.37,-14.23 -72.14,-29.8 -95.17,-29.14 -8.69,0.25 -100.74,141.45 -101.74,336.1 22.96,-22.21 49.7,-40.73 79.11,-55.22"
         style="fill:#fabeb3;fill-opacity:1;fill-rule:nonzero;stroke:none"
         id="path180" /><path
         d="m 3802.15,2903.8 c 19.1,5.66 38.32,13.46 49.5,20.9 10.01,-28.07 17.01,-66.33 22.77,-98 l -2.7,121.5 -69.57,-44.4"
         style="fill:#f79984;fill-opacity:1;fill-rule:nonzero;stroke:none"
         id="path182" /><path
         d="m 3933.92,3136.43 c 6.38,8.07 14.47,13.97 23.46,17.74 4.87,2.05 7.39,-6.53 2.61,-8.66 -7.96,-3.53 -14.83,-9.07 -20.34,-16.44 -2.6,-3.48 -4.79,-7.31 -6.57,-11.42 -1.61,-3.73 -2.09,-6.74 -5.08,-9.27 -1.61,-1.35 -4.22,-0.24 -4.79,1.9 -2.29,8.68 5.85,20 10.71,26.15"
         style="fill:#f79984;fill-opacity:1;fill-rule:nonzero;stroke:none"
         id="path184" /><path
         d="m 3780.51,3113.72 c -0.76,3.79 -1.85,7.61 -0.81,11.42 1.52,5.49 8.13,7.55 12.44,3.74 2.94,-2.61 4.16,-6.39 5.58,-9.97 1.31,-3.28 2.3,-6.41 2.96,-9.88 2.18,-11.39 -12.81,-16.01 -17.25,-5.2 -1.34,3.29 -2.22,6.41 -2.92,9.89"
         style="fill:#40261d;fill-opacity:1;fill-rule:nonzero;stroke:none"
         id="path186" /><path
         d="m 3684.12,3102.15 c -0.64,3.8 -1.6,7.65 -0.43,11.43 1.7,5.44 8.37,7.28 12.55,3.33 2.86,-2.71 3.94,-6.53 5.25,-10.16 1.19,-3.32 2.08,-6.47 2.63,-9.97 1.79,-11.46 -13.34,-15.57 -17.41,-4.62 -1.24,3.33 -2.02,6.48 -2.59,9.99"
         style="fill:#40261d;fill-opacity:1;fill-rule:nonzero;stroke:none"
         id="path188" /><path
         d="m 3755.62,2980.12 c 23.96,8.41 46.57,20.55 66.88,35.79 -15.37,-21.16 -38.51,-32.79 -62.67,-40.74 -1.32,1.73 -2.69,3.4 -4.21,4.95"
         style="fill:#ffffff;fill-opacity:1;fill-rule:nonzero;stroke:none"
         id="path190" /><path
         d="m 3822.5,3015.91 c 1.01,0.76 2.06,1.49 3.06,2.27 0.34,-4.73 0.17,-9.56 -0.44,-14.33 -1.37,-10.82 -5.23,-21.32 -12.18,-29.51 -10.02,-11.8 -24.71,-19.57 -40.13,-20.96 -2.63,4.77 -5.18,9.71 -8.02,14.43 -1.54,2.55 -3.18,5.01 -4.96,7.36 24.16,7.95 47.3,19.58 62.67,40.74"
         style="fill:#b51d24;fill-opacity:1;fill-rule:nonzero;stroke:none"
         id="path192" /><path
         d="m 3749.28,3185.85 c 24.74,7.06 49.84,4.85 72.96,-6.43 5.51,-2.69 1.07,-11.13 -4.45,-8.43 -20.8,10.16 -43.3,12.15 -65.58,5.78 -5.89,-1.68 -8.82,7.39 -2.93,9.08"
         style="fill:#be2e22;fill-opacity:1;fill-rule:nonzero;stroke:none"
         id="path194" /><path
         d="m 3664.98,3152.02 c 4.77,9.61 12.99,16.72 23.1,20.23 5.81,2.01 8.72,-7.07 2.94,-9.07 -7.85,-2.72 -13.93,-8.19 -17.62,-15.61 -2.72,-5.5 -11.16,-1.05 -8.42,4.45"
         style="fill:#be2e22;fill-opacity:1;fill-rule:nonzero;stroke:none"
         id="path196" /><path
         d="m 3741.52,3008.13 c -5.63,3.4 -12.69,2.71 -18.97,3.55 -3.59,0.48 -8.83,1.9 -10.35,5.57 -0.98,2.38 0.46,5.16 1.34,7.37 1.32,3.32 2.67,6.64 3.98,9.96 2.62,6.67 5.44,13.25 7.3,20.17 1.26,4.66 -5.46,7.38 -7.83,3.17 -4.02,-7.13 -6.96,-14.81 -10.12,-22.35 -2.87,-6.87 -7.4,-14.61 -4.21,-22.14 2.49,-5.86 8.37,-9.43 14.34,-11 3.47,-0.91 7.16,-1.06 10.73,-1.33 3.54,-0.28 6.76,-1.02 10.19,-1.88 5.38,-1.34 8.3,6.07 3.6,8.91"
         style="fill:#40261d;fill-opacity:1;fill-rule:nonzero;stroke:none"
         id="path198" /><path
         d="m 3423.73,2590.59 c -35.16,23.8 -74.68,40.8 -116.08,50.2 -12.56,2.85 -17.12,-16.63 -4.56,-19.48 39.85,-9.05 77.38,-25.46 111.22,-48.37 4.48,-3.03 11.17,-0.29 13.53,4.12 2.77,5.19 0.37,10.5 -4.11,13.53"
         style="fill:#fabeb3;fill-opacity:1;fill-rule:nonzero;stroke:none"
         id="path200" /><path
         d="m 3374.53,2582.65 c -18.9,16.84 -42.81,28.03 -67.98,31.1 -5.18,0.63 -10.96,-1.76 -12.02,-7.46 -0.91,-4.85 1.9,-11.34 7.45,-12.02 5.59,-0.68 11.13,-1.73 16.58,-3.21 6.12,-1.67 9.5,-2.88 14.94,-5.34 10.79,-4.88 19.09,-10.31 27.44,-17.75 3.92,-3.49 10.6,-3.62 14.13,0.55 3.46,4.06 3.63,10.41 -0.54,14.13"
         style="fill:#fabeb3;fill-opacity:1;fill-rule:nonzero;stroke:none"
         id="path202" /><path
         d="m 3367.27,2554.49 c -16.38,15.63 -36.79,26.77 -58.75,32.22 -5.08,1.26 -11.03,-2.2 -12.02,-7.46 -1.01,-5.39 2.02,-10.67 7.46,-12.02 2.49,-0.62 4.97,-1.3 7.42,-2.07 1.17,-0.37 2.31,-0.75 3.45,-1.14 l 1.71,-0.62 h 0.03 l 0.09,-0.05 c 4.75,-2.01 9.43,-4.06 13.96,-6.55 2.12,-1.16 4.2,-2.39 6.25,-3.68 1.03,-0.65 2.04,-1.31 3.04,-1.99 l 1.58,-1.08 0.42,-0.31 c 4.12,-3.08 8.06,-6.37 11.79,-9.93 3.79,-3.62 10.67,-3.52 14.13,0.55 3.54,4.18 3.49,10.27 -0.56,14.13"
         style="fill:#fabeb3;fill-opacity:1;fill-rule:nonzero;stroke:none"
         id="path204" /><path
         d="m 3373.28,2509.69 c -16.79,20.24 -37.97,35.2 -62.67,44.24 -4.93,1.8 -11.11,-2.59 -12.02,-7.45 -1.1,-5.87 2.18,-10.1 7.45,-12.03 l 0.47,-0.16 0.13,-0.05 1.71,-0.69 c 1.28,-0.52 2.54,-1.06 3.81,-1.62 2.52,-1.12 5.01,-2.33 7.47,-3.61 5.03,-2.63 9.86,-5.62 14.54,-8.85 l 0.05,-0.03 0.11,-0.1 1.85,-1.37 c 1.1,-0.83 2.19,-1.69 3.26,-2.56 2.15,-1.74 4.24,-3.54 6.28,-5.41 2.03,-1.87 4,-3.81 5.92,-5.8 0.95,-1 1.89,-2.01 2.82,-3.04 l 1.22,-1.38 c 0.08,-0.09 2,-2.36 0.74,-0.85 3.33,-4.01 9.01,-6.41 13.81,-3.05 3.99,2.79 6.62,9.51 3.05,13.81"
         style="fill:#fabeb3;fill-opacity:1;fill-rule:nonzero;stroke:none"
         id="path206" /><path
         d="m 2967.87,2333.14 127.52,-8.25 76.58,59.11 h 21.02 l -45.93,53.47 -60.13,10.12 -119.06,-82.46 v -31.99"
         style="fill:#f79984;fill-opacity:1;fill-rule:nonzero;stroke:none"
         id="path208" /><path
         d="m 2967.87,2365.13 43.9,10.05 c 29.34,6.72 55.06,24.26 72.03,49.11 l 13.57,19.89 85.94,15 c 5.6,0.97 9.68,5.84 9.68,11.52 0,6.58 -5.43,11.87 -12,11.69 l -105.02,13.27 c -25.63,3.23 -51.34,-5.5 -69.69,-23.7 l -38.41,-38.06 v -68.77"
         style="fill:#fabeb3;fill-opacity:1;fill-rule:nonzero;stroke:none"
         id="path210" /><path
         d="m 2407.36,576.211 h -129.54 l -0.8,46.93 h 131.35 l -1.01,-46.93"
         style="fill:#fabeb3;fill-opacity:1;fill-rule:nonzero;stroke:none"
         id="path212" /><path
         d="m 2632.14,478.371 -221.33,97.84 h -143.04 l -23.45,-120.813 h 400.8 l -12.98,22.973"
         style="fill:#ed1945;fill-opacity:1;fill-rule:nonzero;stroke:none"
         id="path214" /><path
         d="m 2244.32,455.398 -3.7,-19.078 h 415.27 l -10.77,19.078 h -400.8"
         style="fill:#ffffff;fill-opacity:1;fill-rule:nonzero;stroke:none"
         id="path216" /><path
         d="m 1781.19,1501.33 v 522.16 l 69,-26.49 c 42.16,-16.18 63.37,-63.35 47.49,-105.63 -10.91,-29.04 -1.82,-61.8 22.5,-81.07 l 525.55,-416.38 c 24.02,-19.03 37.27,-48.57 35.51,-79.17 l -39.77,-691.609 h -212.36 l -22.49,592.999 -425.43,285.19"
         style="fill:#252d33;fill-opacity:1;fill-rule:nonzero;stroke:none"
         id="path218" /><path
         d="m 1800.3,1990.48 1.79,-181.54 333.99,-374.03 c 25.07,-28.09 38.66,-64.59 38.04,-102.24 -1.3,-79.11 -49.72,-149.79 -123.02,-179.58 l -522.7,-212.391 -71.89,228.041 440.14,169.1 -236.25,96.58 c -183.5,75.03 -303.41,253.59 -303.41,451.85 l 443.31,104.21"
         style="fill:#33414b;fill-opacity:1;fill-rule:nonzero;stroke:none"
         id="path220" /><path
         d="m 2029.48,1329.25 c -75.09,5.58 -148.37,27.12 -214.84,62.39 -11.4,6.04 -20.48,-11.78 -9.11,-17.81 69.81,-37.03 146.31,-58.7 225.07,-64.55 12.8,-0.94 11.56,19.03 -1.12,19.97"
         style="fill:#252d33;fill-opacity:1;fill-rule:nonzero;stroke:none"
         id="path222" /><path
         d="m 1957.37,1296.51 -50.12,30.76 c -4.46,2.74 -11.1,1.56 -13.78,-3.17 -2.66,-4.68 -1.59,-10.86 3.17,-13.79 l 50.12,-30.75 c 4.46,-2.74 11.1,-1.56 13.79,3.17 2.65,4.68 1.59,10.86 -3.18,13.78"
         style="fill:#252d33;fill-opacity:1;fill-rule:nonzero;stroke:none"
         id="path224" /><path
         d="m 2168.63,2560.24 c 26.76,45.76 53.72,88.93 99.68,61.05 71.5,-43.37 137.54,-73.27 222.14,-104.96 l -83.99,-183.48 c -84.26,22.36 -182.24,35.22 -258.83,81.68 -45.75,27.74 -6.34,98.96 21,145.71"
         style="fill:#ed1945;fill-opacity:1;fill-rule:nonzero;stroke:none"
         id="path226" /><path
         d="m 2583.81,2463.45 -89.59,41.64 c -19.83,-60.58 -49.04,-115.94 -90.16,-163.5 l 170.76,-53.31 393.05,44.86 v 100.76 l -384.06,29.55"
         style="fill:#fabeb3;fill-opacity:1;fill-rule:nonzero;stroke:none"
         id="path228" /><path
         d="m 2558.18,2322.1 409.69,39.12 v 72.68 l -384.06,29.55 -80.88,37.6 c -2.8,-53.62 -17.89,-101.09 -45.37,-142.37 l 100.62,-36.58"
         style="fill:#fabeb3;fill-opacity:1;fill-rule:nonzero;stroke:none"
         id="path230" /><path
         d="m 2558.18,2322.1 -100.62,36.58 c 27.48,41.28 42.57,88.75 45.37,142.37 l -12.48,5.8 -3.94,1.69 c -13.75,-59.7 -37.39,-118.92 -81.23,-167.33 l 169.54,-52.93 393.05,44.86 v 28.08 l -409.69,-39.12"
         style="fill:#f79984;fill-opacity:1;fill-rule:nonzero;stroke:none"
         id="path232" /><path
         d="m 2483.54,2515.7 c -18.5,-61.43 -46.65,-119.23 -83.53,-171.72 -7.41,-10.54 9.44,-21.32 16.83,-10.8 37.82,53.83 66.83,113.58 85.8,176.58 3.71,12.3 -15.38,18.31 -19.1,5.94"
         style="fill:#d61e25;fill-opacity:1;fill-rule:nonzero;stroke:none"
         id="path234" /><path
         d="m 1908.39,1939.81 c 5.62,40.03 18.52,78.8 33.37,116.26 59.8,150.87 145.17,297.34 256.07,416.31 35.94,38.56 75.2,73.71 117.58,104.64 -113.29,116.64 -296.22,219.25 -475.17,257.86 -74.36,16.04 -149.15,-25.22 -175.74,-96.49 l -136.11,-168.33 c -193.73,-239.6 -250.34,-562.11 -149.78,-853.36 v -0.01 c 229.62,156.2 476.92,176.75 529.65,158.83 -3.71,21.06 -2.85,43.01 0.13,64.29"
         style="fill:#ed1945;fill-opacity:1;fill-rule:nonzero;stroke:none"
         id="path236" /><path
         d="m 1693.5,1988.6 c -82.32,-9.19 -163.17,-29.42 -239.24,-63.99 -68.74,309.33 98.78,589.1 293.22,820.33 27.77,33.03 -19.92,77.32 -49.83,46.22 -14.19,-14.76 -25.61,-32.55 -33.15,-52.77 l -136.11,-168.33 c -193.73,-239.6 -250.34,-562.11 -149.78,-853.36 v -0.01 c 20.4,13.87 40.94,26.63 61.46,38.43 4.36,23.82 11.96,47.07 24.19,69.49 42.87,92.88 141.88,109.19 235.05,132.81 19.14,4.85 13.81,33.37 -5.81,31.18"
         style="fill:#d51743;fill-opacity:1;fill-rule:nonzero;stroke:none"
         id="path238" /><path
         d="m 1871.41,1944.04 c -62.5,3.18 -124.58,-7.54 -182.62,-30.8 -11.92,-4.78 -2.28,-22.31 9.56,-17.57 54.68,21.91 113.68,31.37 172.45,28.38 12.86,-0.65 13.47,19.35 0.61,19.99"
         style="fill:#d51743;fill-opacity:1;fill-rule:nonzero;stroke:none"
         id="path240" /><path
         d="m 2142.37,2420.23 c -105.68,-114.93 -183.64,-254.36 -225.71,-404.79 -11.97,-42.79 -20.88,-86.36 -27.03,-130.36 -1.78,-12.73 18.21,-13.5 19.99,-0.83 21.03,150.39 78.17,295.09 164.85,419.72 24.76,35.61 51.91,69.45 81.26,101.37 8.65,9.41 -4.64,24.36 -13.36,14.89"
         style="fill:#d61e25;fill-opacity:1;fill-rule:nonzero;stroke:none"
         id="path242" /><path
         d="m 1500.78,2123.18 c 0,0 66.27,-29.54 110.73,-53.58 13.85,-49.74 -22.94,-96.86 -63.94,-118.1 -33.21,-17.21 -75.56,-15.23 -107.03,5 -31.47,20.23 -50.85,57.94 -48.98,95.3 l 109.22,71.38"
         style="fill:#fabeb3;fill-opacity:1;fill-rule:nonzero;stroke:none"
         id="path244" /><path
         d="m 1700.17,1935.88 c -9.02,57.93 -44.28,107.75 -95.1,136.67 -20.75,11.79 -39.57,-20.11 -18.82,-31.92 43.28,-24.63 70.53,-65.41 78.16,-114.46 3.65,-23.49 39.39,-13.66 35.76,9.71"
         style="fill:#fabeb3;fill-opacity:1;fill-rule:nonzero;stroke:none"
         id="path246" /><path
         d="m 1657.94,1907.62 c -9.01,57.92 -44.28,107.76 -95.09,136.66 -20.75,11.81 -39.57,-20.1 -18.83,-31.9 43.29,-24.63 70.53,-65.41 78.16,-114.46 3.66,-23.49 39.4,-13.68 35.76,9.7"
         style="fill:#fabeb3;fill-opacity:1;fill-rule:nonzero;stroke:none"
         id="path248" /><path
         d="m 1604.38,1892.66 c -9.02,57.93 -44.28,107.76 -95.1,136.67 -20.74,11.81 -39.56,-20.1 -18.82,-31.9 43.28,-24.63 70.53,-65.41 78.16,-114.46 3.65,-23.5 39.39,-13.68 35.76,9.69"
         style="fill:#fabeb3;fill-opacity:1;fill-rule:nonzero;stroke:none"
         id="path250" /><path
         d="m 1548.6,1892.89 c -9,57.93 -44.27,107.75 -95.09,136.67 -20.74,11.8 -39.56,-20.11 -18.82,-31.91 43.29,-24.63 70.53,-65.41 78.16,-114.46 3.66,-23.5 39.39,-13.67 35.75,9.7"
         style="fill:#fabeb3;fill-opacity:1;fill-rule:nonzero;stroke:none"
         id="path252" /><path
         d="m 1500.78,2123.18 -135.11,387.08 387.8,138.06 -81.47,173.29 -501.2,-164.97 c -31.08,-10.23 -46.12,-45.43 -32.03,-74.96 l 252.79,-529.88 109.22,71.38"
         style="fill:#fabeb3;fill-opacity:1;fill-rule:nonzero;stroke:none"
         id="path254" /><path
         d="m 1753.47,2648.32 -81.47,173.29 -140.2,-46.14 c -4.04,-55.23 -5.87,-109.91 9.58,-160.29 -70.34,-38.99 -154.55,-68.55 -229.89,-90.26 30.28,-20.6 54.02,-44.85 74.19,-72 l -20.01,57.34 387.8,138.06"
         style="fill:#f79984;fill-opacity:1;fill-rule:nonzero;stroke:none"
         id="path256" /><path
         d="m 1311.49,2524.92 c 75.34,21.71 159.55,51.27 229.89,90.26 -15.45,50.38 -13.62,105.06 -9.58,160.29 l -361,-118.83 c -31.08,-10.23 -46.12,-45.43 -32.03,-74.96 l 252.79,-529.88 109.22,71.38 -115.1,329.74 c -20.17,27.15 -43.91,51.4 -74.19,72"
         style="fill:#fabeb3;fill-opacity:1;fill-rule:nonzero;stroke:none"
         id="path258" /><path
         d="m 1477.65,2548.89 c 88.76,34.33 172.23,56.92 268.99,75.86 53,10.38 96.96,62.79 84.39,120.96 -11.84,54.77 30.7,88.21 -27.02,92.62 -146.19,11.15 -293.37,-47.75 -389.1,-83.38 5.75,-70.04 27.31,-142.14 62.74,-206.06"
         style="fill:#ed1945;fill-opacity:1;fill-rule:nonzero;stroke:none"
         id="path260" /><path
         d="m 1411.3,2750.87 c 7.2,-71.07 29.55,-139.56 65.67,-201.19 6.53,-11.12 23.35,-0.31 16.85,10.78 -34.35,58.58 -55.7,123.89 -62.54,191.46 -1.3,12.75 -21.29,11.8 -19.98,-1.05"
         style="fill:#d61e25;fill-opacity:1;fill-rule:nonzero;stroke:none"
         id="path262" /><path
         d="m 2242.01,3022.66 c 37.21,16.84 57.86,57.64 54,95.76 -3.87,38.12 -29.35,72.59 -62.89,95.06 -33.54,22.47 -74.46,33.97 -115.51,39.16 -34.59,4.37 -70.21,4.47 -103.97,-3.73 -17.13,-4.17 -34.9,-11.4 -43.64,-25.65 -8.74,-14.24 -2.81,-36.5 14.47,-40.11 -14.44,2.33 -30.09,-5.12 -36.43,-17.34 -6.33,-12.23 -2.79,-28.16 8.24,-37.1 -16.68,1.62 -33.94,-7.59 -40.76,-21.75 -6.81,-14.17 -2.66,-32.18 9.81,-42.54 -17.03,-5.61 -24.02,-25.58 -20.2,-41.92 3.82,-16.34 15.47,-29.99 26.08,-43.53 26.83,-34.25 48.96,-71.63 65.69,-110.99 24.73,8.82 47.99,21.12 68.75,36.35"
         style="fill:#362315;fill-opacity:1;fill-rule:nonzero;stroke:none"
         id="path264" /><path
         d="m 2257.64,3114.84 c -21.64,4.2 -43.29,2.76 -65.19,0.17 -18.62,-2.2 -75.6,-14.48 -75.6,-14.48 -13.55,-39.63 -20.2,-65.96 -52.16,-93.03 -3.04,-2.57 -6.43,-5.24 -10.4,-5.34 -5.33,-0.15 -11.19,3.94 -16.26,5.44 -7.17,2.14 -14.18,4.76 -21.16,7.46 -21.9,8.46 -45.71,20.36 -67.13,4.39 -17.82,-13.29 -22.55,-40.26 -12.47,-60.08 10.07,-19.81 32.66,-31.71 54.88,-31.55 8.87,-63.11 7.1,-86.33 -2.45,-149.34 10.98,-29.92 39.24,-67.26 65.44,-75.46 26.19,-8.21 55.82,-8.44 80.12,4.35 1.35,31 4.31,61.26 10.57,91.65 20.57,-3.46 42.66,-4.52 63.22,-1.03 7.81,1.32 16.06,3.45 21.28,9.39 3.91,4.47 5.53,10.45 7.02,16.2 23.91,91.9 29.89,194.41 20.29,291.26"
         style="fill:#fabeb3;fill-opacity:1;fill-rule:nonzero;stroke:none"
         id="path266" /><path
         d="m 2135.26,2707.37 c 1.35,31 4.31,61.26 10.57,91.65 11.51,-1.94 23.48,-3.08 35.41,-3.13 -26.78,4.86 -45.37,15.15 -67.22,21.38 3.68,-40.2 15.42,-112.96 21.24,-109.9"
         style="fill:#f79984;fill-opacity:1;fill-rule:nonzero;stroke:none"
         id="path268" /><path
         d="m 1987.73,2990.15 c -6.73,6.43 -14.73,10.7 -23.25,12.95 -4.63,1.22 -5.81,-6.78 -1.26,-8.08 7.58,-2.17 14.43,-6.27 20.29,-12.18 2.78,-2.8 5.22,-5.95 7.33,-9.41 1.92,-3.14 2.72,-5.79 5.72,-7.68 1.61,-1.01 3.82,0.32 4.05,2.3 0.96,8.08 -7.75,17.2 -12.88,22.1"
         style="fill:#f79984;fill-opacity:1;fill-rule:nonzero;stroke:none"
         id="path270" /><path
         d="m 2152.39,3020.72 c 0.2,3.49 0.71,7.05 -0.71,10.34 -2.05,4.73 -8.24,5.74 -11.62,1.79 -2.31,-2.71 -2.92,-6.25 -3.75,-9.64 -0.76,-3.11 -1.25,-6.04 -1.41,-9.23 -0.52,-10.48 13.5,-12.74 16.11,-2.49 0.8,3.11 1.19,6.03 1.38,9.23"
         style="fill:#40261d;fill-opacity:1;fill-rule:nonzero;stroke:none"
         id="path272" /><path
         d="m 2252.4,3028.98 c -0.68,3.43 -1.09,7 -3.3,9.82 -3.17,4.07 -9.41,3.49 -11.68,-1.19 -1.56,-3.21 -1.25,-6.79 -1.2,-10.28 0.05,-3.19 0.31,-6.15 0.96,-9.29 2.14,-10.27 16.27,-8.92 16.22,1.65 -0.01,3.22 -0.37,6.14 -1,9.29"
         style="fill:#40261d;fill-opacity:1;fill-rule:nonzero;stroke:none"
         id="path274" /><path
         d="m 2142.38,2861.44 c 17.44,-1.5 33.44,-7.5 47.69,-17.62 3.79,-2.69 -0.76,-8.28 -4.54,-5.59 -13.25,9.4 -28.07,14.7 -44.25,16.08 -4.62,0.4 -3.5,7.52 1.1,7.13"
         style="fill:#f79984;fill-opacity:1;fill-rule:nonzero;stroke:none"
         id="path276" /><path
         d="m 2226.93,3094.54 c 12.38,8.12 34.84,-4.22 41.1,-15.79 2.19,-4.05 -2.5,-10.02 -6.96,-8.71 -6,1.75 -11.18,5.2 -17.06,7.26 -5.68,2 -12.89,2.03 -17.36,6.3 -3.05,2.9 -3.71,8.33 0.28,10.94"
         style="fill:#362315;fill-opacity:1;fill-rule:nonzero;stroke:none"
         id="path278" /><path
         d="m 2119.13,3081.29 c 11.93,14.26 38.49,18.15 55.98,16.92 8.34,-0.59 7.32,-12.88 -0.26,-14.12 -9.21,-1.5 -18.12,-2.59 -27.08,-5.46 -7.61,-2.44 -15.3,-6.34 -23.26,-7.14 -5.15,-0.51 -8.81,5.69 -5.38,9.8"
         style="fill:#362315;fill-opacity:1;fill-rule:nonzero;stroke:none"
         id="path280" /><path
         d="m 2128.31,2942.48 c 29.03,-16.62 60.75,-28.52 93.55,-35.11 -3.8,-5.17 -6.7,-10.93 -9.25,-16.89 -29.39,5.81 -57.58,16.89 -81.26,34.26 -1.59,5.83 -2.64,11.8 -3.04,17.74"
         style="fill:#f6f6f7;fill-opacity:1;fill-rule:nonzero;stroke:none"
         id="path282" /><path
         d="m 2212.61,2890.48 c -2.72,-6.37 -5.02,-12.96 -7.45,-19.35 -19.41,-0.95 -39.01,6.15 -53.52,19.07 -10.08,8.96 -16.7,21.34 -20.29,34.54 23.68,-17.37 51.87,-28.45 81.26,-34.26"
         style="fill:#b51d24;fill-opacity:1;fill-rule:nonzero;stroke:none"
         id="path284" /><path
         d="m 1990.42,2785.02 c 11.9,-67.6 78.58,-103.18 141.69,-76.61 10.59,4.46 15.22,-12.85 4.75,-17.26 -71.78,-30.21 -150.2,12.47 -163.69,89.11 -1.99,11.26 15.25,16.09 17.25,4.76"
         style="fill:#d61e25;fill-opacity:1;fill-rule:nonzero;stroke:none"
         id="path286" /><path
         d="m 2302.66,3276.3 c -24.3,-12.89 -48.4,-26.3 -72.1,-40.39 -1.3,1.19 -2.6,2.39 -3.9,3.69 -47,45.1 -116.8,65 -180.5,51.31 -63.6,-13.61 -119.2,-60.31 -143.6,-120.71 -21.9,-54.29 -21.1,-124 11.9,-171.2 -1.2,-1 -2.3,-2.1 -3.5,-3.2 -9.4,-8.9 4.3,-23.5 13.7,-14.6 58.9,55.6 121.5,107.1 187.3,153.9 43.1,30.81 87.5,59.5 133.2,86.2 22.1,13 44.4,25.4 67.1,37.4 11.4,6 1.8,23.6 -9.6,17.6"
         style="fill:#ed1945;fill-opacity:1;fill-rule:nonzero;stroke:none"
         id="path288" /><path
         d="m 2239.27,2941.53 c -8.2,29.26 -16.4,58.52 -24.6,87.78 -1.73,6.18 -11.51,4.08 -9.77,-2.13 7.74,-27.63 15.49,-55.26 23.23,-82.89 -7.28,-1.48 -14.56,-2.96 -21.84,-4.45 -6.31,-1.29 -4.18,-11.06 2.13,-9.77 9.01,1.84 18.02,3.67 27.03,5.51 2.53,0.52 4.54,3.37 3.82,5.95"
         style="fill:#40261d;fill-opacity:1;fill-rule:nonzero;stroke:none"
         id="path290" /><path
         d="m 2197.66,3237.9 c -91.77,-70.54 -183.56,-141.08 -275.34,-211.61 -10.22,-7.86 3.21,-22.69 13.36,-14.9 91.78,70.54 183.56,141.08 275.34,211.62 10.23,7.86 -3.21,22.69 -13.36,14.89"
         style="fill:#d61e25;fill-opacity:1;fill-rule:nonzero;stroke:none"
         id="path292" /><path
         d="m 2797.86,2255.42 h 790.28 l -27.43,-472.53 h -735.43 l -27.42,472.53"
         style="fill:#d51743;fill-opacity:1;fill-rule:nonzero;stroke:none"
         id="path294" /><path
         d="m 3560.71,1782.89 27.43,-135.92 h -790.28 l 27.42,135.92 h 735.43"
         style="fill:#ed1945;fill-opacity:1;fill-rule:nonzero;stroke:none"
         id="path296" /><path
         d="m 3304.95,2190.89 v 101.46 c 0,58.26 -43.16,109.27 -101.15,114.73 -66.57,6.27 -122.75,-46.15 -122.75,-111.44 v -104.75 c 0,-5.05 -4.09,-9.15 -9.14,-9.15 -5.05,0 -9.15,4.1 -9.15,9.15 v 100.98 c 0,70.04 53.72,130.39 123.68,133.84 74.79,3.69 136.8,-56.08 136.8,-130.07 v -104.75 c 0,-5.05 -4.1,-9.15 -9.15,-9.15 -5.05,0 -9.14,4.1 -9.14,9.15"
         style="fill:#252d33;fill-opacity:1;fill-rule:nonzero;stroke:none"
         id="path298" /><path
         d="m 3243.53,2376.8 v 0 c -3.28,4.87 -2,11.47 2.86,14.75 l 41.28,27.87 c 4.86,3.28 11.46,2 14.75,-2.85 3.28,-4.86 2,-11.47 -2.86,-14.75 l -41.28,-27.87 c -4.87,-3.28 -11.47,-2 -14.75,2.85"
         style="fill:#fabeb3;fill-opacity:1;fill-rule:nonzero;stroke:none"
         id="path300" /><path
         d="m 3256.93,2357.69 v 0 c -3.29,4.87 -2,11.47 2.85,14.75 l 41.28,27.87 c 4.86,3.28 11.47,2 14.75,-2.86 3.28,-4.86 2,-11.46 -2.86,-14.74 l -41.28,-27.87 c -4.86,-3.29 -11.46,-2 -14.74,2.85"
         style="fill:#fabeb3;fill-opacity:1;fill-rule:nonzero;stroke:none"
         id="path302" /><path
         d="m 3274.79,2336.74 v 0 c -3.28,4.86 -2,11.46 2.86,14.74 l 41.28,27.87 c 4.86,3.29 11.46,2 14.75,-2.85 3.28,-4.86 2,-11.46 -2.86,-14.75 l -41.28,-27.87 c -4.87,-3.28 -11.47,-2 -14.75,2.86"
         style="fill:#fabeb3;fill-opacity:1;fill-rule:nonzero;stroke:none"
         id="path304" /><path
         d="m 3288.08,2318.9 v 0 c -3.28,4.87 -2,11.47 2.86,14.75 l 35.94,24.27 c 4.86,3.28 11.46,2 14.75,-2.86 3.28,-4.87 2,-11.47 -2.86,-14.75 l -35.94,-24.27 c -4.86,-3.28 -11.47,-2 -14.75,2.86"
         style="fill:#fabeb3;fill-opacity:1;fill-rule:nonzero;stroke:none"
         id="path306" /><path
         d="m 1603.22,785.898 c -61.39,189.411 -122.79,378.822 -184.19,568.232 -7.87,24.31 -46.84,15.11 -38.87,-9.46 61.4,-189.41 122.8,-378.818 184.19,-568.229 7.88,-24.312 46.84,-15.109 38.87,9.457"
         style="fill:#51c292;fill-opacity:1;fill-rule:nonzero;stroke:none"
         id="path308" /><path
         d="m 1392.05,1454.13 c -8.58,23.8 -17.15,47.61 -25.73,71.4 -1.82,5.07 -4.09,9.26 -8.82,12.23 -4.21,2.64 -10.49,3.89 -15.35,2.48 -9.49,-2.75 -18.5,-13.63 -14.7,-24.17 8.57,-23.8 17.15,-47.6 25.72,-71.41 1.83,-5.06 4.1,-9.25 8.83,-12.22 4.21,-2.64 10.49,-3.89 15.34,-2.48 9.49,2.76 18.51,13.63 14.71,24.17"
         style="fill:#51c292;fill-opacity:1;fill-rule:nonzero;stroke:none"
         id="path310" /><path
         d="m 1207.73,2046.18 c -24.02,79.92 -48.04,159.85 -72.05,239.78 -7.37,24.53 -46.32,15.3 -38.88,-9.46 24.02,-79.93 48.04,-159.85 72.05,-239.78 7.38,-24.54 46.32,-15.3 38.88,9.46"
         style="fill:#51c292;fill-opacity:1;fill-rule:nonzero;stroke:none"
         id="path312" /><path
         d="m 3207.29,2382.38 v 0 c 6.04,5.24 6.68,14.39 1.43,20.43 l -44.54,51.27 c -5.25,6.03 -14.4,6.68 -20.43,1.43 -6.04,-5.25 -6.68,-14.39 -1.44,-20.43 l 44.55,-51.26 c 5.25,-6.04 14.4,-6.68 20.43,-1.44"
         style="fill:#fabeb3;fill-opacity:1;fill-rule:nonzero;stroke:none"
         id="path314" /><path
         d="m 3170.53,2363.57 v 0 c 6.04,5.25 6.68,14.4 1.44,20.43 l -44.55,51.26 c -5.25,6.05 -14.4,6.68 -20.43,1.44 -6.04,-5.25 -6.68,-14.4 -1.44,-20.43 l 44.55,-51.26 c 5.25,-6.05 14.4,-6.68 20.43,-1.44"
         style="fill:#fabeb3;fill-opacity:1;fill-rule:nonzero;stroke:none"
         id="path316" /><path
         d="m 3139.62,2342.26 v 0 c 6.03,5.26 6.67,14.4 1.42,20.43 l -44.54,51.27 c -5.24,6.04 -14.39,6.68 -20.43,1.44 -6.04,-5.25 -6.68,-14.4 -1.43,-20.43 l 44.54,-51.27 c 5.25,-6.04 14.39,-6.68 20.44,-1.44"
         style="fill:#fabeb3;fill-opacity:1;fill-rule:nonzero;stroke:none"
         id="path318" /><path
         d="m 3115.82,2323.45 v 0 c 6.03,5.25 6.68,14.4 1.43,20.43 l -38.79,44.64 c -5.24,6.04 -14.39,6.67 -20.43,1.43 -6.03,-5.25 -6.68,-14.4 -1.43,-20.43 l 38.79,-44.63 c 5.24,-6.04 14.39,-6.68 20.43,-1.44"
         style="fill:#fabeb3;fill-opacity:1;fill-rule:nonzero;stroke:none"
         id="path320" /></g></g></svg>
